%TF.GenerationSoftware,KiCad,Pcbnew,9.0.7-unknown-202601171506~52788676f7~ubuntu25.04.1*%
%TF.CreationDate,2026-03-02T10:18:53+05:30*%
%TF.ProjectId,AM,414d2e6b-6963-4616-945f-706362585858,rev?*%
%TF.SameCoordinates,Original*%
%TF.FileFunction,Copper,L2,Bot*%
%TF.FilePolarity,Positive*%
%FSLAX46Y46*%
G04 Gerber Fmt 4.6, Leading zero omitted, Abs format (unit mm)*
G04 Created by KiCad (PCBNEW 9.0.7-unknown-202601171506~52788676f7~ubuntu25.04.1) date 2026-03-02 10:18:53*
%MOMM*%
%LPD*%
G01*
G04 APERTURE LIST*
G04 Aperture macros list*
%AMRoundRect*
0 Rectangle with rounded corners*
0 $1 Rounding radius*
0 $2 $3 $4 $5 $6 $7 $8 $9 X,Y pos of 4 corners*
0 Add a 4 corners polygon primitive as box body*
4,1,4,$2,$3,$4,$5,$6,$7,$8,$9,$2,$3,0*
0 Add four circle primitives for the rounded corners*
1,1,$1+$1,$2,$3*
1,1,$1+$1,$4,$5*
1,1,$1+$1,$6,$7*
1,1,$1+$1,$8,$9*
0 Add four rect primitives between the rounded corners*
20,1,$1+$1,$2,$3,$4,$5,0*
20,1,$1+$1,$4,$5,$6,$7,0*
20,1,$1+$1,$6,$7,$8,$9,0*
20,1,$1+$1,$8,$9,$2,$3,0*%
G04 Aperture macros list end*
%TA.AperFunction,ComponentPad*%
%ADD10C,1.600000*%
%TD*%
%TA.AperFunction,ComponentPad*%
%ADD11C,10.160000*%
%TD*%
%TA.AperFunction,ComponentPad*%
%ADD12O,1.200000X1.600000*%
%TD*%
%TA.AperFunction,ComponentPad*%
%ADD13C,1.200000*%
%TD*%
%TA.AperFunction,ComponentPad*%
%ADD14RoundRect,0.250000X0.550000X0.550000X-0.550000X0.550000X-0.550000X-0.550000X0.550000X-0.550000X0*%
%TD*%
%TA.AperFunction,ComponentPad*%
%ADD15R,3.000000X3.000000*%
%TD*%
%TA.AperFunction,ComponentPad*%
%ADD16C,3.000000*%
%TD*%
%TA.AperFunction,ComponentPad*%
%ADD17RoundRect,0.250000X-0.550000X-0.550000X0.550000X-0.550000X0.550000X0.550000X-0.550000X0.550000X0*%
%TD*%
%TA.AperFunction,Conductor*%
%ADD18C,1.000000*%
%TD*%
G04 APERTURE END LIST*
D10*
%TO.P,R2,1*%
%TO.N,Net-(U2--)*%
X137160000Y-99060000D03*
%TO.P,R2,2*%
%TO.N,Net-(J2-Pin_2)*%
X124460000Y-99060000D03*
%TD*%
D11*
%TO.P,J3,1,Pin_1*%
%TO.N,gnd*%
X162600000Y-47400000D03*
%TO.P,J3,2,Pin_2*%
%TO.N,Net-(J3-Pin_2)*%
X162600000Y-77370000D03*
%TD*%
D10*
%TO.P,R1,1*%
%TO.N,Net-(U2--)*%
X145542000Y-69088000D03*
%TO.P,R1,2*%
%TO.N,Net-(Q1-S)*%
X132842000Y-69088000D03*
%TD*%
D12*
%TO.P,Q1,1,D*%
%TO.N,gnd*%
X127000000Y-68630800D03*
D13*
%TO.P,Q1,2,G*%
%TO.N,Net-(Q1-G)*%
X125730000Y-69900800D03*
%TO.P,Q1,3,S*%
%TO.N,Net-(Q1-S)*%
X127000000Y-71170800D03*
%TO.P,Q1,4*%
%TO.N,N/C*%
X128270000Y-69900800D03*
%TD*%
D11*
%TO.P,J4,1,Pin_1*%
%TO.N,Net-(J4-Pin_1)*%
X115316000Y-120650000D03*
%TO.P,J4,2,Pin_2*%
%TO.N,gnd*%
X115316000Y-105660000D03*
%TO.P,J4,3,Pin_3*%
%TO.N,Net-(J4-Pin_3)*%
X115316000Y-90680000D03*
%TD*%
D14*
%TO.P,C1,1*%
%TO.N,Net-(J3-Pin_2)*%
X147131851Y-59893200D03*
D10*
%TO.P,C1,2*%
%TO.N,Net-(Q1-G)*%
X142131851Y-59893200D03*
%TD*%
D15*
%TO.P,RV1,1,1*%
%TO.N,gnd*%
X114380000Y-65450000D03*
D16*
%TO.P,RV1,2,2*%
%TO.N,Net-(Q1-G)*%
X114380000Y-70450000D03*
%TO.P,RV1,3,3*%
%TO.N,Net-(J4-Pin_3)*%
X114380000Y-75450000D03*
%TD*%
D17*
%TO.P,U2,1,NULL*%
%TO.N,unconnected-(U2-NULL-Pad1)*%
X125831600Y-85648800D03*
D10*
%TO.P,U2,2,-*%
%TO.N,Net-(U2--)*%
X125831600Y-88188800D03*
%TO.P,U2,3,+*%
%TO.N,Net-(J1-Pin_1)*%
X125831600Y-90728800D03*
%TO.P,U2,4,V-*%
%TO.N,Net-(J4-Pin_3)*%
X125831600Y-93268800D03*
%TO.P,U2,5,NULL*%
%TO.N,unconnected-(U2-NULL-Pad5)*%
X133451600Y-93268800D03*
%TO.P,U2,6*%
%TO.N,Net-(J2-Pin_2)*%
X133451600Y-90728800D03*
%TO.P,U2,7,V+*%
%TO.N,Net-(J4-Pin_1)*%
X133451600Y-88188800D03*
%TO.P,U2,8,NC*%
%TO.N,unconnected-(U2-NC-Pad8)*%
X133451600Y-85648800D03*
%TD*%
D11*
%TO.P,J1,1,Pin_1*%
%TO.N,Net-(J1-Pin_1)*%
X145048000Y-46990000D03*
%TO.P,J1,2,Pin_2*%
%TO.N,gnd*%
X115078000Y-46990000D03*
%TD*%
%TO.P,J2,1,Pin_1*%
%TO.N,gnd*%
X162430000Y-90420000D03*
%TO.P,J2,2,Pin_2*%
%TO.N,Net-(J2-Pin_2)*%
X162430000Y-120390000D03*
%TD*%
D18*
%TO.N,Net-(J2-Pin_2)*%
X126850000Y-105260000D02*
X141699600Y-105260000D01*
X124460000Y-99060000D02*
X124460000Y-102870000D01*
X124460000Y-102870000D02*
X126850000Y-105260000D01*
X141699600Y-105260000D02*
X158140400Y-121700800D01*
%TD*%
%TA.AperFunction,Conductor*%
%TO.N,gnd*%
G36*
X168911339Y-36106185D02*
G01*
X168957094Y-36158989D01*
X168968300Y-36210500D01*
X168968300Y-132957500D01*
X168948615Y-133024539D01*
X168895811Y-133070294D01*
X168844300Y-133081500D01*
X108320500Y-133081500D01*
X108253461Y-133061815D01*
X108207706Y-133009011D01*
X108196500Y-132957500D01*
X108196500Y-129057648D01*
X114015500Y-129057648D01*
X114015500Y-129262351D01*
X114047522Y-129464534D01*
X114110781Y-129659223D01*
X114203715Y-129841613D01*
X114324028Y-130007213D01*
X114468786Y-130151971D01*
X114623749Y-130264556D01*
X114634390Y-130272287D01*
X114750607Y-130331503D01*
X114816776Y-130365218D01*
X114816778Y-130365218D01*
X114816781Y-130365220D01*
X114921137Y-130399127D01*
X115011465Y-130428477D01*
X115112557Y-130444488D01*
X115213648Y-130460500D01*
X115213649Y-130460500D01*
X115418351Y-130460500D01*
X115418352Y-130460500D01*
X115620534Y-130428477D01*
X115815219Y-130365220D01*
X115997610Y-130272287D01*
X116090590Y-130204732D01*
X116163213Y-130151971D01*
X116163215Y-130151968D01*
X116163219Y-130151966D01*
X116307966Y-130007219D01*
X116307968Y-130007215D01*
X116307971Y-130007213D01*
X116360732Y-129934590D01*
X116428287Y-129841610D01*
X116521220Y-129659219D01*
X116584477Y-129464534D01*
X116616500Y-129262352D01*
X116616500Y-129057648D01*
X161259500Y-129057648D01*
X161259500Y-129262351D01*
X161291522Y-129464534D01*
X161354781Y-129659223D01*
X161447715Y-129841613D01*
X161568028Y-130007213D01*
X161712786Y-130151971D01*
X161867749Y-130264556D01*
X161878390Y-130272287D01*
X161994607Y-130331503D01*
X162060776Y-130365218D01*
X162060778Y-130365218D01*
X162060781Y-130365220D01*
X162165137Y-130399127D01*
X162255465Y-130428477D01*
X162356557Y-130444488D01*
X162457648Y-130460500D01*
X162457649Y-130460500D01*
X162662351Y-130460500D01*
X162662352Y-130460500D01*
X162864534Y-130428477D01*
X163059219Y-130365220D01*
X163241610Y-130272287D01*
X163334590Y-130204732D01*
X163407213Y-130151971D01*
X163407215Y-130151968D01*
X163407219Y-130151966D01*
X163551966Y-130007219D01*
X163551968Y-130007215D01*
X163551971Y-130007213D01*
X163604732Y-129934590D01*
X163672287Y-129841610D01*
X163765220Y-129659219D01*
X163828477Y-129464534D01*
X163860500Y-129262352D01*
X163860500Y-129057648D01*
X163828477Y-128855466D01*
X163765220Y-128660781D01*
X163765218Y-128660778D01*
X163765218Y-128660776D01*
X163731503Y-128594607D01*
X163672287Y-128478390D01*
X163664556Y-128467749D01*
X163551971Y-128312786D01*
X163407213Y-128168028D01*
X163241613Y-128047715D01*
X163241612Y-128047714D01*
X163241610Y-128047713D01*
X163184653Y-128018691D01*
X163059223Y-127954781D01*
X162864534Y-127891522D01*
X162689995Y-127863878D01*
X162662352Y-127859500D01*
X162457648Y-127859500D01*
X162433329Y-127863351D01*
X162255465Y-127891522D01*
X162060776Y-127954781D01*
X161878386Y-128047715D01*
X161712786Y-128168028D01*
X161568028Y-128312786D01*
X161447715Y-128478386D01*
X161354781Y-128660776D01*
X161291522Y-128855465D01*
X161259500Y-129057648D01*
X116616500Y-129057648D01*
X116584477Y-128855466D01*
X116521220Y-128660781D01*
X116521218Y-128660778D01*
X116521218Y-128660776D01*
X116487503Y-128594607D01*
X116428287Y-128478390D01*
X116420556Y-128467749D01*
X116307971Y-128312786D01*
X116163213Y-128168028D01*
X115997613Y-128047715D01*
X115997612Y-128047714D01*
X115997610Y-128047713D01*
X115940653Y-128018691D01*
X115815223Y-127954781D01*
X115620534Y-127891522D01*
X115445995Y-127863878D01*
X115418352Y-127859500D01*
X115213648Y-127859500D01*
X115189329Y-127863351D01*
X115011465Y-127891522D01*
X114816776Y-127954781D01*
X114634386Y-128047715D01*
X114468786Y-128168028D01*
X114324028Y-128312786D01*
X114203715Y-128478386D01*
X114110781Y-128660776D01*
X114047522Y-128855465D01*
X114015500Y-129057648D01*
X108196500Y-129057648D01*
X108196500Y-120430736D01*
X109735500Y-120430736D01*
X109735500Y-120869263D01*
X109769905Y-121306424D01*
X109769905Y-121306425D01*
X109838503Y-121739539D01*
X109940871Y-122165930D01*
X109940874Y-122165942D01*
X109940878Y-122165953D01*
X110076380Y-122582991D01*
X110244191Y-122988119D01*
X110244197Y-122988133D01*
X110443279Y-123378855D01*
X110443286Y-123378868D01*
X110443289Y-123378873D01*
X110672397Y-123752742D01*
X110672405Y-123752753D01*
X110930151Y-124107512D01*
X110930161Y-124107526D01*
X111214945Y-124440963D01*
X111214951Y-124440970D01*
X111525030Y-124751049D01*
X111525036Y-124751054D01*
X111858473Y-125035838D01*
X111858480Y-125035843D01*
X112213248Y-125293596D01*
X112213252Y-125293598D01*
X112213257Y-125293602D01*
X112587126Y-125522710D01*
X112587131Y-125522713D01*
X112587136Y-125522715D01*
X112587145Y-125522721D01*
X112977867Y-125721803D01*
X113329599Y-125867496D01*
X113383008Y-125889619D01*
X113489050Y-125924073D01*
X113800058Y-126025126D01*
X114226458Y-126127496D01*
X114659576Y-126196095D01*
X115096742Y-126230500D01*
X115096750Y-126230500D01*
X115535250Y-126230500D01*
X115535258Y-126230500D01*
X115972424Y-126196095D01*
X116405542Y-126127496D01*
X116831942Y-126025126D01*
X117248997Y-125889617D01*
X117654133Y-125721803D01*
X118044855Y-125522721D01*
X118418752Y-125293596D01*
X118773520Y-125035843D01*
X119106970Y-124751049D01*
X119417049Y-124440970D01*
X119701843Y-124107520D01*
X119959596Y-123752752D01*
X120188721Y-123378855D01*
X120387803Y-122988133D01*
X120555617Y-122582997D01*
X120691126Y-122165942D01*
X120793496Y-121739542D01*
X120862095Y-121306424D01*
X120896500Y-120869258D01*
X120896500Y-120430742D01*
X120862095Y-119993576D01*
X120793496Y-119560458D01*
X120691126Y-119134058D01*
X120555617Y-118717003D01*
X120387803Y-118311867D01*
X120188721Y-117921145D01*
X120188715Y-117921136D01*
X120188713Y-117921131D01*
X120188710Y-117921126D01*
X119959602Y-117547257D01*
X119959598Y-117547252D01*
X119959596Y-117547248D01*
X119701843Y-117192480D01*
X119701838Y-117192473D01*
X119417054Y-116859036D01*
X119417049Y-116859030D01*
X119106970Y-116548951D01*
X119106963Y-116548945D01*
X118773526Y-116264161D01*
X118773512Y-116264151D01*
X118418753Y-116006405D01*
X118418742Y-116006397D01*
X118044873Y-115777289D01*
X118044868Y-115777286D01*
X118044858Y-115777281D01*
X118044855Y-115777279D01*
X117654133Y-115578197D01*
X117654119Y-115578191D01*
X117248991Y-115410380D01*
X116952256Y-115313966D01*
X116831942Y-115274874D01*
X116831930Y-115274871D01*
X116405539Y-115172503D01*
X115972425Y-115103905D01*
X115535263Y-115069500D01*
X115535258Y-115069500D01*
X115096742Y-115069500D01*
X115096736Y-115069500D01*
X114659575Y-115103905D01*
X114659574Y-115103905D01*
X114226460Y-115172503D01*
X113800069Y-115274871D01*
X113800063Y-115274872D01*
X113800058Y-115274874D01*
X113800046Y-115274878D01*
X113383008Y-115410380D01*
X112977880Y-115578191D01*
X112977867Y-115578197D01*
X112587131Y-115777286D01*
X112587126Y-115777289D01*
X112213257Y-116006397D01*
X112213246Y-116006405D01*
X111858487Y-116264151D01*
X111858473Y-116264161D01*
X111525036Y-116548945D01*
X111525022Y-116548958D01*
X111214958Y-116859022D01*
X111214945Y-116859036D01*
X110930161Y-117192473D01*
X110930151Y-117192487D01*
X110672405Y-117547246D01*
X110672397Y-117547257D01*
X110443289Y-117921126D01*
X110443286Y-117921131D01*
X110244197Y-118311867D01*
X110244191Y-118311880D01*
X110076380Y-118717008D01*
X109940878Y-119134046D01*
X109940871Y-119134069D01*
X109838503Y-119560460D01*
X109769905Y-119993574D01*
X109769905Y-119993575D01*
X109735500Y-120430736D01*
X108196500Y-120430736D01*
X108196500Y-105440755D01*
X109736000Y-105440755D01*
X109736000Y-105879244D01*
X109770402Y-106316355D01*
X109770404Y-106316374D01*
X109838995Y-106749438D01*
X109941353Y-107175794D01*
X109941360Y-107175817D01*
X110076850Y-107592817D01*
X110244646Y-107997910D01*
X110244652Y-107997923D01*
X110443723Y-108388623D01*
X110443726Y-108388629D01*
X110672810Y-108762458D01*
X110672824Y-108762480D01*
X110930554Y-109117213D01*
X110930566Y-109117228D01*
X111195279Y-109427167D01*
X112988818Y-107633627D01*
X113038208Y-107695560D01*
X113280440Y-107937792D01*
X113342371Y-107987180D01*
X111548831Y-109780719D01*
X111548831Y-109780720D01*
X111858771Y-110045433D01*
X111858786Y-110045445D01*
X112213519Y-110303175D01*
X112213541Y-110303189D01*
X112587370Y-110532273D01*
X112587376Y-110532276D01*
X112978076Y-110731347D01*
X112978089Y-110731353D01*
X113383182Y-110899149D01*
X113800182Y-111034639D01*
X113800205Y-111034646D01*
X114226561Y-111137004D01*
X114659625Y-111205595D01*
X114659644Y-111205597D01*
X115096755Y-111239999D01*
X115096769Y-111240000D01*
X115535231Y-111240000D01*
X115535244Y-111239999D01*
X115972355Y-111205597D01*
X115972374Y-111205595D01*
X116405438Y-111137004D01*
X116831794Y-111034646D01*
X116831817Y-111034639D01*
X117248817Y-110899149D01*
X117653910Y-110731353D01*
X117653923Y-110731347D01*
X118044623Y-110532276D01*
X118044629Y-110532273D01*
X118418458Y-110303189D01*
X118418480Y-110303175D01*
X118773213Y-110045445D01*
X118773215Y-110045443D01*
X119083167Y-109780719D01*
X117289628Y-107987180D01*
X117351560Y-107937792D01*
X117593792Y-107695560D01*
X117643180Y-107633628D01*
X119436719Y-109427167D01*
X119701443Y-109117215D01*
X119701445Y-109117213D01*
X119959175Y-108762480D01*
X119959189Y-108762458D01*
X120188273Y-108388629D01*
X120188276Y-108388623D01*
X120387347Y-107997923D01*
X120387353Y-107997910D01*
X120555149Y-107592817D01*
X120690639Y-107175817D01*
X120690646Y-107175794D01*
X120793004Y-106749438D01*
X120861595Y-106316374D01*
X120861597Y-106316355D01*
X120895999Y-105879244D01*
X120896000Y-105879231D01*
X120896000Y-105440768D01*
X120895999Y-105440755D01*
X120861597Y-105003644D01*
X120861595Y-105003625D01*
X120793004Y-104570561D01*
X120690646Y-104144205D01*
X120690639Y-104144182D01*
X120555149Y-103727182D01*
X120387353Y-103322089D01*
X120387347Y-103322076D01*
X120188276Y-102931376D01*
X120188273Y-102931370D01*
X119959189Y-102557541D01*
X119959175Y-102557519D01*
X119701445Y-102202786D01*
X119701433Y-102202771D01*
X119436719Y-101892831D01*
X117643180Y-103686370D01*
X117593792Y-103624440D01*
X117351560Y-103382208D01*
X117289627Y-103332818D01*
X119083167Y-101539279D01*
X119083167Y-101539278D01*
X118773228Y-101274566D01*
X118773213Y-101274554D01*
X118418480Y-101016824D01*
X118418458Y-101016810D01*
X118044629Y-100787726D01*
X118044623Y-100787723D01*
X117653923Y-100588652D01*
X117653910Y-100588646D01*
X117248817Y-100420850D01*
X116831817Y-100285360D01*
X116831794Y-100285353D01*
X116405438Y-100182995D01*
X115972374Y-100114404D01*
X115972355Y-100114402D01*
X115535244Y-100080000D01*
X115096755Y-100080000D01*
X114659644Y-100114402D01*
X114659625Y-100114404D01*
X114226561Y-100182995D01*
X113800205Y-100285353D01*
X113800182Y-100285360D01*
X113383182Y-100420850D01*
X112978089Y-100588646D01*
X112978076Y-100588652D01*
X112587376Y-100787723D01*
X112587370Y-100787726D01*
X112213541Y-101016810D01*
X112213519Y-101016824D01*
X111858786Y-101274554D01*
X111548831Y-101539279D01*
X113342371Y-103332819D01*
X113280440Y-103382208D01*
X113038208Y-103624440D01*
X112988819Y-103686371D01*
X111195279Y-101892831D01*
X110930554Y-102202786D01*
X110672824Y-102557519D01*
X110672810Y-102557541D01*
X110443726Y-102931370D01*
X110443723Y-102931376D01*
X110244652Y-103322076D01*
X110244646Y-103322089D01*
X110076850Y-103727182D01*
X109941360Y-104144182D01*
X109941353Y-104144205D01*
X109838995Y-104570561D01*
X109770404Y-105003625D01*
X109770402Y-105003644D01*
X109736000Y-105440755D01*
X108196500Y-105440755D01*
X108196500Y-98957648D01*
X123159500Y-98957648D01*
X123159500Y-99162351D01*
X123191522Y-99364534D01*
X123254781Y-99559223D01*
X123347713Y-99741610D01*
X123435819Y-99862877D01*
X123459298Y-99928681D01*
X123459500Y-99935761D01*
X123459500Y-102968541D01*
X123459500Y-102968543D01*
X123459499Y-102968543D01*
X123497947Y-103161829D01*
X123497950Y-103161839D01*
X123573364Y-103343907D01*
X123573371Y-103343920D01*
X123682859Y-103507780D01*
X123682860Y-103507781D01*
X123682861Y-103507782D01*
X123822218Y-103647139D01*
X123822219Y-103647139D01*
X123829286Y-103654206D01*
X123829285Y-103654206D01*
X123829288Y-103654208D01*
X126072860Y-105897781D01*
X126072861Y-105897782D01*
X126212218Y-106037139D01*
X126376086Y-106146632D01*
X126482745Y-106190811D01*
X126558164Y-106222051D01*
X126751454Y-106260499D01*
X126751457Y-106260500D01*
X126751459Y-106260500D01*
X126948540Y-106260500D01*
X141233818Y-106260500D01*
X141300857Y-106280185D01*
X141321499Y-106296819D01*
X157093626Y-122068947D01*
X157123876Y-122118310D01*
X157190380Y-122322991D01*
X157298079Y-122582997D01*
X157358197Y-122728133D01*
X157557279Y-123118855D01*
X157557286Y-123118868D01*
X157557289Y-123118873D01*
X157786397Y-123492742D01*
X157786405Y-123492753D01*
X158044151Y-123847512D01*
X158044161Y-123847526D01*
X158328945Y-124180963D01*
X158328951Y-124180970D01*
X158639030Y-124491049D01*
X158639036Y-124491054D01*
X158972473Y-124775838D01*
X158972480Y-124775843D01*
X159327248Y-125033596D01*
X159327252Y-125033598D01*
X159327257Y-125033602D01*
X159701126Y-125262710D01*
X159701131Y-125262713D01*
X159701136Y-125262715D01*
X159701145Y-125262721D01*
X160091867Y-125461803D01*
X160497003Y-125629617D01*
X160497008Y-125629619D01*
X160603050Y-125664073D01*
X160914058Y-125765126D01*
X161340458Y-125867496D01*
X161773576Y-125936095D01*
X162210742Y-125970500D01*
X162210750Y-125970500D01*
X162649250Y-125970500D01*
X162649258Y-125970500D01*
X163086424Y-125936095D01*
X163519542Y-125867496D01*
X163945942Y-125765126D01*
X164362997Y-125629617D01*
X164768133Y-125461803D01*
X165158855Y-125262721D01*
X165532752Y-125033596D01*
X165887520Y-124775843D01*
X166220970Y-124491049D01*
X166531049Y-124180970D01*
X166815843Y-123847520D01*
X167073596Y-123492752D01*
X167302721Y-123118855D01*
X167501803Y-122728133D01*
X167669617Y-122322997D01*
X167805126Y-121905942D01*
X167907496Y-121479542D01*
X167976095Y-121046424D01*
X168010500Y-120609258D01*
X168010500Y-120170742D01*
X167976095Y-119733576D01*
X167907496Y-119300458D01*
X167805126Y-118874058D01*
X167669617Y-118457003D01*
X167501803Y-118051867D01*
X167302721Y-117661145D01*
X167302715Y-117661136D01*
X167302713Y-117661131D01*
X167302710Y-117661126D01*
X167073602Y-117287257D01*
X167073598Y-117287252D01*
X167073596Y-117287248D01*
X166815843Y-116932480D01*
X166815838Y-116932473D01*
X166531054Y-116599036D01*
X166531049Y-116599030D01*
X166220970Y-116288951D01*
X166191933Y-116264151D01*
X165887526Y-116004161D01*
X165887512Y-116004151D01*
X165743126Y-115899249D01*
X165532752Y-115746404D01*
X165532749Y-115746402D01*
X165532742Y-115746397D01*
X165158873Y-115517289D01*
X165158868Y-115517286D01*
X165158858Y-115517281D01*
X165158855Y-115517279D01*
X164768133Y-115318197D01*
X164768119Y-115318191D01*
X164362991Y-115150380D01*
X164066256Y-115053966D01*
X163945942Y-115014874D01*
X163945930Y-115014871D01*
X163519539Y-114912503D01*
X163086425Y-114843905D01*
X162649263Y-114809500D01*
X162649258Y-114809500D01*
X162210742Y-114809500D01*
X162210736Y-114809500D01*
X161773575Y-114843905D01*
X161773574Y-114843905D01*
X161340460Y-114912503D01*
X160914069Y-115014871D01*
X160914063Y-115014872D01*
X160914058Y-115014874D01*
X160914046Y-115014878D01*
X160497008Y-115150380D01*
X160091880Y-115318191D01*
X160091867Y-115318197D01*
X159701131Y-115517286D01*
X159701126Y-115517289D01*
X159327257Y-115746397D01*
X159327246Y-115746405D01*
X158972487Y-116004151D01*
X158972473Y-116004161D01*
X158639036Y-116288945D01*
X158639022Y-116288958D01*
X158328958Y-116599022D01*
X158328945Y-116599036D01*
X158044161Y-116932473D01*
X158044151Y-116932487D01*
X157786405Y-117287246D01*
X157786397Y-117287257D01*
X157557289Y-117661126D01*
X157557286Y-117661131D01*
X157358197Y-118051867D01*
X157358191Y-118051880D01*
X157190380Y-118457008D01*
X157054878Y-118874046D01*
X157054867Y-118874083D01*
X157043391Y-118921884D01*
X157008600Y-118982476D01*
X156946573Y-119014638D01*
X156877004Y-119008161D01*
X156835137Y-118980616D01*
X142483809Y-104629289D01*
X142483806Y-104629285D01*
X142483806Y-104629286D01*
X142476739Y-104622219D01*
X142476739Y-104622218D01*
X142337382Y-104482861D01*
X142337381Y-104482860D01*
X142337380Y-104482859D01*
X142173520Y-104373371D01*
X142173511Y-104373366D01*
X142100915Y-104343296D01*
X142044765Y-104320038D01*
X141991436Y-104297949D01*
X141991432Y-104297948D01*
X141991428Y-104297946D01*
X141894788Y-104278724D01*
X141798144Y-104259500D01*
X141798141Y-104259500D01*
X127315783Y-104259500D01*
X127248744Y-104239815D01*
X127228102Y-104223181D01*
X125496819Y-102491898D01*
X125463334Y-102430575D01*
X125460500Y-102404217D01*
X125460500Y-99935761D01*
X125480185Y-99868722D01*
X125484165Y-99862899D01*
X125572287Y-99741610D01*
X125665220Y-99559219D01*
X125728477Y-99364534D01*
X125760500Y-99162352D01*
X125760500Y-98957648D01*
X135859500Y-98957648D01*
X135859500Y-99162351D01*
X135891522Y-99364534D01*
X135954781Y-99559223D01*
X136047715Y-99741613D01*
X136168028Y-99907213D01*
X136312786Y-100051971D01*
X136467749Y-100164556D01*
X136478390Y-100172287D01*
X136594607Y-100231503D01*
X136660776Y-100265218D01*
X136660778Y-100265218D01*
X136660781Y-100265220D01*
X136722744Y-100285353D01*
X136855465Y-100328477D01*
X136956557Y-100344488D01*
X137057648Y-100360500D01*
X137057649Y-100360500D01*
X137262351Y-100360500D01*
X137262352Y-100360500D01*
X137464534Y-100328477D01*
X137659219Y-100265220D01*
X137841610Y-100172287D01*
X137934590Y-100104732D01*
X138007213Y-100051971D01*
X138007215Y-100051968D01*
X138007219Y-100051966D01*
X138151966Y-99907219D01*
X138151968Y-99907215D01*
X138151971Y-99907213D01*
X138204732Y-99834590D01*
X138272287Y-99741610D01*
X138365220Y-99559219D01*
X138428477Y-99364534D01*
X138460500Y-99162352D01*
X138460500Y-98957648D01*
X138428477Y-98755466D01*
X138365220Y-98560781D01*
X138365218Y-98560778D01*
X138365218Y-98560776D01*
X138331503Y-98494607D01*
X138272287Y-98378390D01*
X138264556Y-98367749D01*
X138151971Y-98212786D01*
X138007213Y-98068028D01*
X137841613Y-97947715D01*
X137841612Y-97947714D01*
X137841610Y-97947713D01*
X137784653Y-97918691D01*
X137659223Y-97854781D01*
X137464534Y-97791522D01*
X137289995Y-97763878D01*
X137262352Y-97759500D01*
X137057648Y-97759500D01*
X137033329Y-97763351D01*
X136855465Y-97791522D01*
X136660776Y-97854781D01*
X136478386Y-97947715D01*
X136312786Y-98068028D01*
X136168028Y-98212786D01*
X136047715Y-98378386D01*
X135954781Y-98560776D01*
X135891522Y-98755465D01*
X135859500Y-98957648D01*
X125760500Y-98957648D01*
X125728477Y-98755466D01*
X125665220Y-98560781D01*
X125665218Y-98560778D01*
X125665218Y-98560776D01*
X125631503Y-98494607D01*
X125572287Y-98378390D01*
X125564556Y-98367749D01*
X125451971Y-98212786D01*
X125307213Y-98068028D01*
X125141613Y-97947715D01*
X125141612Y-97947714D01*
X125141610Y-97947713D01*
X125084653Y-97918691D01*
X124959223Y-97854781D01*
X124764534Y-97791522D01*
X124589995Y-97763878D01*
X124562352Y-97759500D01*
X124357648Y-97759500D01*
X124333329Y-97763351D01*
X124155465Y-97791522D01*
X123960776Y-97854781D01*
X123778386Y-97947715D01*
X123612786Y-98068028D01*
X123468028Y-98212786D01*
X123347715Y-98378386D01*
X123254781Y-98560776D01*
X123191522Y-98755465D01*
X123159500Y-98957648D01*
X108196500Y-98957648D01*
X108196500Y-90460736D01*
X109735500Y-90460736D01*
X109735500Y-90899263D01*
X109769905Y-91336424D01*
X109769905Y-91336425D01*
X109838503Y-91769539D01*
X109910697Y-92070246D01*
X109940874Y-92195942D01*
X109967157Y-92276834D01*
X110076380Y-92612991D01*
X110199978Y-92911380D01*
X110244197Y-93018133D01*
X110443279Y-93408855D01*
X110443286Y-93408868D01*
X110443289Y-93408873D01*
X110672397Y-93782742D01*
X110672405Y-93782753D01*
X110930151Y-94137512D01*
X110930161Y-94137526D01*
X111138181Y-94381084D01*
X111214951Y-94470970D01*
X111525030Y-94781049D01*
X111525036Y-94781054D01*
X111858473Y-95065838D01*
X111858480Y-95065843D01*
X112213248Y-95323596D01*
X112213252Y-95323598D01*
X112213257Y-95323602D01*
X112587126Y-95552710D01*
X112587131Y-95552713D01*
X112587136Y-95552715D01*
X112587145Y-95552721D01*
X112977867Y-95751803D01*
X113328411Y-95897004D01*
X113383008Y-95919619D01*
X113489050Y-95954073D01*
X113800058Y-96055126D01*
X114226458Y-96157496D01*
X114659576Y-96226095D01*
X115096742Y-96260500D01*
X115096750Y-96260500D01*
X115535250Y-96260500D01*
X115535258Y-96260500D01*
X115972424Y-96226095D01*
X116405542Y-96157496D01*
X116831942Y-96055126D01*
X117248997Y-95919617D01*
X117654133Y-95751803D01*
X118044855Y-95552721D01*
X118418752Y-95323596D01*
X118773520Y-95065843D01*
X118776628Y-95063189D01*
X118811159Y-95033696D01*
X119106970Y-94781049D01*
X119417049Y-94470970D01*
X119701843Y-94137520D01*
X119959596Y-93782752D01*
X120188721Y-93408855D01*
X120387803Y-93018133D01*
X120555617Y-92612997D01*
X120691126Y-92195942D01*
X120793496Y-91769542D01*
X120862095Y-91336424D01*
X120896500Y-90899258D01*
X120896500Y-90460742D01*
X120862095Y-90023576D01*
X120793496Y-89590458D01*
X120691126Y-89164058D01*
X120555617Y-88747003D01*
X120387803Y-88341867D01*
X120188721Y-87951145D01*
X120188715Y-87951136D01*
X120188713Y-87951131D01*
X120188710Y-87951126D01*
X119959602Y-87577257D01*
X119959598Y-87577252D01*
X119959596Y-87577248D01*
X119701843Y-87222480D01*
X119701838Y-87222473D01*
X119417054Y-86889036D01*
X119417049Y-86889030D01*
X119106970Y-86578951D01*
X119035759Y-86518131D01*
X118773526Y-86294161D01*
X118773512Y-86294151D01*
X118418753Y-86036405D01*
X118418742Y-86036397D01*
X118044873Y-85807289D01*
X118044868Y-85807286D01*
X118044858Y-85807281D01*
X118044855Y-85807279D01*
X117654133Y-85608197D01*
X117654119Y-85608191D01*
X117248991Y-85440380D01*
X116952256Y-85343966D01*
X116831942Y-85304874D01*
X116831930Y-85304871D01*
X116405539Y-85202503D01*
X116188367Y-85168107D01*
X115972425Y-85133905D01*
X115535263Y-85099500D01*
X115535258Y-85099500D01*
X115096742Y-85099500D01*
X115096736Y-85099500D01*
X114659575Y-85133905D01*
X114659574Y-85133905D01*
X114226460Y-85202503D01*
X113800069Y-85304871D01*
X113800063Y-85304872D01*
X113800058Y-85304874D01*
X113800046Y-85304878D01*
X113383008Y-85440380D01*
X112977880Y-85608191D01*
X112977867Y-85608197D01*
X112587131Y-85807286D01*
X112587126Y-85807289D01*
X112213257Y-86036397D01*
X112213246Y-86036405D01*
X111858487Y-86294151D01*
X111858473Y-86294161D01*
X111525036Y-86578945D01*
X111525022Y-86578958D01*
X111214958Y-86889022D01*
X111214945Y-86889036D01*
X110930161Y-87222473D01*
X110930151Y-87222487D01*
X110672405Y-87577246D01*
X110672397Y-87577257D01*
X110443289Y-87951126D01*
X110443286Y-87951131D01*
X110244197Y-88341867D01*
X110244191Y-88341880D01*
X110076380Y-88747008D01*
X109940878Y-89164046D01*
X109940871Y-89164069D01*
X109838503Y-89590460D01*
X109769905Y-90023574D01*
X109769905Y-90023575D01*
X109735500Y-90460736D01*
X108196500Y-90460736D01*
X108196500Y-85048783D01*
X124531100Y-85048783D01*
X124531100Y-86248801D01*
X124531101Y-86248818D01*
X124541600Y-86351596D01*
X124541601Y-86351599D01*
X124589456Y-86496013D01*
X124596786Y-86518134D01*
X124688888Y-86667456D01*
X124812944Y-86791512D01*
X124962266Y-86883614D01*
X125044170Y-86910754D01*
X125101615Y-86950527D01*
X125128438Y-87015043D01*
X125116123Y-87083818D01*
X125078051Y-87128778D01*
X124984387Y-87196828D01*
X124984382Y-87196832D01*
X124839628Y-87341586D01*
X124719315Y-87507186D01*
X124626381Y-87689576D01*
X124563122Y-87884265D01*
X124531100Y-88086448D01*
X124531100Y-88291151D01*
X124563122Y-88493334D01*
X124626381Y-88688023D01*
X124719315Y-88870413D01*
X124839628Y-89036013D01*
X124984386Y-89180771D01*
X125139349Y-89293356D01*
X125149990Y-89301087D01*
X125241440Y-89347683D01*
X125242680Y-89348315D01*
X125293476Y-89396290D01*
X125310271Y-89464111D01*
X125287734Y-89530246D01*
X125242680Y-89569285D01*
X125149986Y-89616515D01*
X124984386Y-89736828D01*
X124839628Y-89881586D01*
X124719315Y-90047186D01*
X124626381Y-90229576D01*
X124563122Y-90424265D01*
X124531100Y-90626448D01*
X124531100Y-90831151D01*
X124563122Y-91033334D01*
X124626381Y-91228023D01*
X124719315Y-91410413D01*
X124839628Y-91576013D01*
X124984386Y-91720771D01*
X125139349Y-91833356D01*
X125149990Y-91841087D01*
X125241440Y-91887683D01*
X125242680Y-91888315D01*
X125293476Y-91936290D01*
X125310271Y-92004111D01*
X125287734Y-92070246D01*
X125242680Y-92109285D01*
X125149986Y-92156515D01*
X124984386Y-92276828D01*
X124839628Y-92421586D01*
X124719315Y-92587186D01*
X124626381Y-92769576D01*
X124563122Y-92964265D01*
X124531100Y-93166448D01*
X124531100Y-93371151D01*
X124563122Y-93573334D01*
X124626381Y-93768023D01*
X124719315Y-93950413D01*
X124839628Y-94116013D01*
X124984386Y-94260771D01*
X125139349Y-94373356D01*
X125149990Y-94381087D01*
X125266207Y-94440303D01*
X125332376Y-94474018D01*
X125332378Y-94474018D01*
X125332381Y-94474020D01*
X125436737Y-94507927D01*
X125527065Y-94537277D01*
X125628157Y-94553288D01*
X125729248Y-94569300D01*
X125729249Y-94569300D01*
X125933951Y-94569300D01*
X125933952Y-94569300D01*
X126136134Y-94537277D01*
X126330819Y-94474020D01*
X126513210Y-94381087D01*
X126606190Y-94313532D01*
X126678813Y-94260771D01*
X126678815Y-94260768D01*
X126678819Y-94260766D01*
X126823566Y-94116019D01*
X126823568Y-94116015D01*
X126823571Y-94116013D01*
X126876332Y-94043390D01*
X126943887Y-93950410D01*
X127036820Y-93768019D01*
X127100077Y-93573334D01*
X127132100Y-93371152D01*
X127132100Y-93166448D01*
X127100077Y-92964266D01*
X127036820Y-92769581D01*
X127036818Y-92769578D01*
X127036818Y-92769576D01*
X126957033Y-92612991D01*
X126943887Y-92587190D01*
X126936156Y-92576549D01*
X126823571Y-92421586D01*
X126678813Y-92276828D01*
X126513214Y-92156515D01*
X126506606Y-92153148D01*
X126420517Y-92109283D01*
X126369723Y-92061311D01*
X126352928Y-91993490D01*
X126375465Y-91927355D01*
X126420517Y-91888316D01*
X126513210Y-91841087D01*
X126534370Y-91825713D01*
X126678813Y-91720771D01*
X126678815Y-91720768D01*
X126678819Y-91720766D01*
X126823566Y-91576019D01*
X126823568Y-91576015D01*
X126823571Y-91576013D01*
X126876332Y-91503390D01*
X126943887Y-91410410D01*
X127036820Y-91228019D01*
X127100077Y-91033334D01*
X127132100Y-90831152D01*
X127132100Y-90626448D01*
X127100077Y-90424265D01*
X127036818Y-90229576D01*
X126953698Y-90066446D01*
X126943887Y-90047190D01*
X126926729Y-90023574D01*
X126823571Y-89881586D01*
X126678813Y-89736828D01*
X126513214Y-89616515D01*
X126462074Y-89590458D01*
X126420517Y-89569283D01*
X126369723Y-89521311D01*
X126352928Y-89453490D01*
X126375465Y-89387355D01*
X126420517Y-89348316D01*
X126513210Y-89301087D01*
X126534370Y-89285713D01*
X126678813Y-89180771D01*
X126678815Y-89180768D01*
X126678819Y-89180766D01*
X126823566Y-89036019D01*
X126823568Y-89036015D01*
X126823571Y-89036013D01*
X126891632Y-88942333D01*
X126943887Y-88870410D01*
X127036820Y-88688019D01*
X127100077Y-88493334D01*
X127132100Y-88291152D01*
X127132100Y-88086448D01*
X127100077Y-87884266D01*
X127036820Y-87689581D01*
X127036818Y-87689578D01*
X127036818Y-87689576D01*
X126979582Y-87577246D01*
X126943887Y-87507190D01*
X126927463Y-87484584D01*
X126823571Y-87341586D01*
X126678819Y-87196834D01*
X126678811Y-87196828D01*
X126585147Y-87128778D01*
X126542482Y-87073449D01*
X126536503Y-87003836D01*
X126569108Y-86942040D01*
X126619026Y-86910755D01*
X126700934Y-86883614D01*
X126850256Y-86791512D01*
X126974312Y-86667456D01*
X127066414Y-86518134D01*
X127121599Y-86351597D01*
X127132100Y-86248809D01*
X127132099Y-85546448D01*
X132151100Y-85546448D01*
X132151100Y-85751151D01*
X132183122Y-85953334D01*
X132246381Y-86148023D01*
X132297735Y-86248809D01*
X132323450Y-86299278D01*
X132339315Y-86330413D01*
X132459628Y-86496013D01*
X132604386Y-86640771D01*
X132759349Y-86753356D01*
X132769990Y-86761087D01*
X132861440Y-86807683D01*
X132862680Y-86808315D01*
X132913476Y-86856290D01*
X132930271Y-86924111D01*
X132907734Y-86990246D01*
X132862680Y-87029285D01*
X132769986Y-87076515D01*
X132604386Y-87196828D01*
X132459628Y-87341586D01*
X132339315Y-87507186D01*
X132246381Y-87689576D01*
X132183122Y-87884265D01*
X132151100Y-88086448D01*
X132151100Y-88291151D01*
X132183122Y-88493334D01*
X132246381Y-88688023D01*
X132339315Y-88870413D01*
X132459628Y-89036013D01*
X132604386Y-89180771D01*
X132759349Y-89293356D01*
X132769990Y-89301087D01*
X132861440Y-89347683D01*
X132862680Y-89348315D01*
X132913476Y-89396290D01*
X132930271Y-89464111D01*
X132907734Y-89530246D01*
X132862680Y-89569285D01*
X132769986Y-89616515D01*
X132604386Y-89736828D01*
X132459628Y-89881586D01*
X132339315Y-90047186D01*
X132246381Y-90229576D01*
X132183122Y-90424265D01*
X132151100Y-90626448D01*
X132151100Y-90831151D01*
X132183122Y-91033334D01*
X132246381Y-91228023D01*
X132339315Y-91410413D01*
X132459628Y-91576013D01*
X132604386Y-91720771D01*
X132759349Y-91833356D01*
X132769990Y-91841087D01*
X132861440Y-91887683D01*
X132862680Y-91888315D01*
X132913476Y-91936290D01*
X132930271Y-92004111D01*
X132907734Y-92070246D01*
X132862680Y-92109285D01*
X132769986Y-92156515D01*
X132604386Y-92276828D01*
X132459628Y-92421586D01*
X132339315Y-92587186D01*
X132246381Y-92769576D01*
X132183122Y-92964265D01*
X132151100Y-93166448D01*
X132151100Y-93371151D01*
X132183122Y-93573334D01*
X132246381Y-93768023D01*
X132339315Y-93950413D01*
X132459628Y-94116013D01*
X132604386Y-94260771D01*
X132759349Y-94373356D01*
X132769990Y-94381087D01*
X132886207Y-94440303D01*
X132952376Y-94474018D01*
X132952378Y-94474018D01*
X132952381Y-94474020D01*
X133056737Y-94507927D01*
X133147065Y-94537277D01*
X133248157Y-94553288D01*
X133349248Y-94569300D01*
X133349249Y-94569300D01*
X133553951Y-94569300D01*
X133553952Y-94569300D01*
X133756134Y-94537277D01*
X133950819Y-94474020D01*
X134133210Y-94381087D01*
X134226190Y-94313532D01*
X134298813Y-94260771D01*
X134298815Y-94260768D01*
X134298819Y-94260766D01*
X134443566Y-94116019D01*
X134443568Y-94116015D01*
X134443571Y-94116013D01*
X134496332Y-94043390D01*
X134563887Y-93950410D01*
X134656820Y-93768019D01*
X134720077Y-93573334D01*
X134752100Y-93371152D01*
X134752100Y-93166448D01*
X134720077Y-92964266D01*
X134656820Y-92769581D01*
X134656818Y-92769578D01*
X134656818Y-92769576D01*
X134577033Y-92612991D01*
X134563887Y-92587190D01*
X134556156Y-92576549D01*
X134443571Y-92421586D01*
X134298813Y-92276828D01*
X134133214Y-92156515D01*
X134126606Y-92153148D01*
X134040517Y-92109283D01*
X133989723Y-92061311D01*
X133972928Y-91993490D01*
X133995465Y-91927355D01*
X134040517Y-91888316D01*
X134133210Y-91841087D01*
X134154370Y-91825713D01*
X134298813Y-91720771D01*
X134298815Y-91720768D01*
X134298819Y-91720766D01*
X134443566Y-91576019D01*
X134443568Y-91576015D01*
X134443571Y-91576013D01*
X134496332Y-91503390D01*
X134563887Y-91410410D01*
X134656820Y-91228019D01*
X134720077Y-91033334D01*
X134752100Y-90831152D01*
X134752100Y-90626448D01*
X134720077Y-90424266D01*
X134720076Y-90424262D01*
X134720076Y-90424261D01*
X134659115Y-90236644D01*
X134658848Y-90235824D01*
X134656820Y-90229581D01*
X134642132Y-90200755D01*
X156850000Y-90200755D01*
X156850000Y-90639244D01*
X156884402Y-91076355D01*
X156884404Y-91076374D01*
X156952995Y-91509438D01*
X157055353Y-91935794D01*
X157055360Y-91935817D01*
X157190850Y-92352817D01*
X157358646Y-92757910D01*
X157358652Y-92757923D01*
X157557723Y-93148623D01*
X157557726Y-93148629D01*
X157786810Y-93522458D01*
X157786824Y-93522480D01*
X158044554Y-93877213D01*
X158044566Y-93877228D01*
X158309279Y-94187167D01*
X160102818Y-92393627D01*
X160152208Y-92455560D01*
X160394440Y-92697792D01*
X160456371Y-92747180D01*
X158662831Y-94540719D01*
X158662831Y-94540720D01*
X158972771Y-94805433D01*
X158972786Y-94805445D01*
X159327519Y-95063175D01*
X159327541Y-95063189D01*
X159701370Y-95292273D01*
X159701376Y-95292276D01*
X160092076Y-95491347D01*
X160092089Y-95491353D01*
X160497182Y-95659149D01*
X160914182Y-95794639D01*
X160914205Y-95794646D01*
X161340561Y-95897004D01*
X161773625Y-95965595D01*
X161773644Y-95965597D01*
X162210755Y-95999999D01*
X162210769Y-96000000D01*
X162649231Y-96000000D01*
X162649244Y-95999999D01*
X163086355Y-95965597D01*
X163086374Y-95965595D01*
X163519438Y-95897004D01*
X163945794Y-95794646D01*
X163945817Y-95794639D01*
X164362817Y-95659149D01*
X164767910Y-95491353D01*
X164767923Y-95491347D01*
X165158623Y-95292276D01*
X165158629Y-95292273D01*
X165532458Y-95063189D01*
X165532480Y-95063175D01*
X165887213Y-94805445D01*
X165887215Y-94805443D01*
X166197167Y-94540719D01*
X164403628Y-92747180D01*
X164465560Y-92697792D01*
X164707792Y-92455560D01*
X164757180Y-92393628D01*
X166550719Y-94187167D01*
X166815443Y-93877215D01*
X166815445Y-93877213D01*
X167073175Y-93522480D01*
X167073189Y-93522458D01*
X167302273Y-93148629D01*
X167302276Y-93148623D01*
X167501347Y-92757923D01*
X167501353Y-92757910D01*
X167669149Y-92352817D01*
X167804639Y-91935817D01*
X167804646Y-91935794D01*
X167907004Y-91509438D01*
X167975595Y-91076374D01*
X167975597Y-91076355D01*
X168009999Y-90639244D01*
X168010000Y-90639231D01*
X168010000Y-90200768D01*
X168009999Y-90200755D01*
X167975597Y-89763644D01*
X167975595Y-89763625D01*
X167907004Y-89330561D01*
X167804646Y-88904205D01*
X167804639Y-88904182D01*
X167669149Y-88487182D01*
X167501353Y-88082089D01*
X167501347Y-88082076D01*
X167302276Y-87691376D01*
X167302273Y-87691370D01*
X167073189Y-87317541D01*
X167073175Y-87317519D01*
X166815445Y-86962786D01*
X166815433Y-86962771D01*
X166550719Y-86652831D01*
X164757180Y-88446370D01*
X164707792Y-88384440D01*
X164465560Y-88142208D01*
X164403627Y-88092818D01*
X166197167Y-86299279D01*
X166197167Y-86299278D01*
X165887228Y-86034566D01*
X165887213Y-86034554D01*
X165532480Y-85776824D01*
X165532458Y-85776810D01*
X165158629Y-85547726D01*
X165158623Y-85547723D01*
X164767923Y-85348652D01*
X164767910Y-85348646D01*
X164362817Y-85180850D01*
X163945817Y-85045360D01*
X163945794Y-85045353D01*
X163519438Y-84942995D01*
X163086374Y-84874404D01*
X163086355Y-84874402D01*
X162649244Y-84840000D01*
X162210755Y-84840000D01*
X161773644Y-84874402D01*
X161773625Y-84874404D01*
X161340561Y-84942995D01*
X160914205Y-85045353D01*
X160914182Y-85045360D01*
X160497182Y-85180850D01*
X160092089Y-85348646D01*
X160092076Y-85348652D01*
X159701376Y-85547723D01*
X159701370Y-85547726D01*
X159327541Y-85776810D01*
X159327519Y-85776824D01*
X158972786Y-86034554D01*
X158662831Y-86299279D01*
X160456371Y-88092819D01*
X160394440Y-88142208D01*
X160152208Y-88384440D01*
X160102819Y-88446371D01*
X158309279Y-86652831D01*
X158044554Y-86962786D01*
X157786824Y-87317519D01*
X157786810Y-87317541D01*
X157557726Y-87691370D01*
X157557723Y-87691376D01*
X157358652Y-88082076D01*
X157358646Y-88082089D01*
X157190850Y-88487182D01*
X157055360Y-88904182D01*
X157055353Y-88904205D01*
X156952995Y-89330561D01*
X156884404Y-89763625D01*
X156884402Y-89763644D01*
X156850000Y-90200755D01*
X134642132Y-90200755D01*
X134563887Y-90047190D01*
X134546729Y-90023574D01*
X134443571Y-89881586D01*
X134298813Y-89736828D01*
X134133214Y-89616515D01*
X134082074Y-89590458D01*
X134040517Y-89569283D01*
X133989723Y-89521311D01*
X133972928Y-89453490D01*
X133995465Y-89387355D01*
X134040517Y-89348316D01*
X134133210Y-89301087D01*
X134154370Y-89285713D01*
X134298813Y-89180771D01*
X134298815Y-89180768D01*
X134298819Y-89180766D01*
X134443566Y-89036019D01*
X134443568Y-89036015D01*
X134443571Y-89036013D01*
X134511632Y-88942333D01*
X134563887Y-88870410D01*
X134656820Y-88688019D01*
X134720077Y-88493334D01*
X134752100Y-88291152D01*
X134752100Y-88086448D01*
X134720077Y-87884266D01*
X134656820Y-87689581D01*
X134656818Y-87689578D01*
X134656818Y-87689576D01*
X134599582Y-87577246D01*
X134563887Y-87507190D01*
X134547463Y-87484584D01*
X134443571Y-87341586D01*
X134298813Y-87196828D01*
X134133214Y-87076515D01*
X134126606Y-87073148D01*
X134040517Y-87029283D01*
X133989723Y-86981311D01*
X133972928Y-86913490D01*
X133995465Y-86847355D01*
X134040517Y-86808316D01*
X134133210Y-86761087D01*
X134262082Y-86667457D01*
X134298813Y-86640771D01*
X134298815Y-86640768D01*
X134298819Y-86640766D01*
X134443566Y-86496019D01*
X134443568Y-86496015D01*
X134443571Y-86496013D01*
X134548494Y-86351597D01*
X134563887Y-86330410D01*
X134656820Y-86148019D01*
X134720077Y-85953334D01*
X134752100Y-85751152D01*
X134752100Y-85546448D01*
X134720077Y-85344266D01*
X134656820Y-85149581D01*
X134656818Y-85149578D01*
X134656818Y-85149576D01*
X134605465Y-85048791D01*
X134563887Y-84967190D01*
X134548492Y-84946000D01*
X134443571Y-84801586D01*
X134298813Y-84656828D01*
X134133213Y-84536515D01*
X134133212Y-84536514D01*
X134133210Y-84536513D01*
X134073498Y-84506088D01*
X133950823Y-84443581D01*
X133756134Y-84380322D01*
X133581595Y-84352678D01*
X133553952Y-84348300D01*
X133349248Y-84348300D01*
X133324929Y-84352151D01*
X133147065Y-84380322D01*
X132952376Y-84443581D01*
X132769986Y-84536515D01*
X132604386Y-84656828D01*
X132459628Y-84801586D01*
X132339315Y-84967186D01*
X132246381Y-85149576D01*
X132183122Y-85344265D01*
X132151100Y-85546448D01*
X127132099Y-85546448D01*
X127132099Y-85048792D01*
X127131748Y-85045360D01*
X127121599Y-84946003D01*
X127121598Y-84946000D01*
X127097873Y-84874404D01*
X127066414Y-84779466D01*
X126974312Y-84630144D01*
X126850256Y-84506088D01*
X126700934Y-84413986D01*
X126534397Y-84358801D01*
X126534395Y-84358800D01*
X126431610Y-84348300D01*
X125231598Y-84348300D01*
X125231581Y-84348301D01*
X125128803Y-84358800D01*
X125128800Y-84358801D01*
X124962268Y-84413985D01*
X124962263Y-84413987D01*
X124812942Y-84506089D01*
X124688889Y-84630142D01*
X124596787Y-84779463D01*
X124596786Y-84779466D01*
X124541601Y-84946003D01*
X124541601Y-84946004D01*
X124541600Y-84946004D01*
X124531100Y-85048783D01*
X108196500Y-85048783D01*
X108196500Y-75318872D01*
X112379500Y-75318872D01*
X112379500Y-75581127D01*
X112406123Y-75783339D01*
X112413730Y-75841116D01*
X112417195Y-75854046D01*
X112481602Y-76094418D01*
X112481605Y-76094428D01*
X112581953Y-76336690D01*
X112581958Y-76336700D01*
X112713075Y-76563803D01*
X112872718Y-76771851D01*
X112872726Y-76771860D01*
X113058140Y-76957274D01*
X113058148Y-76957281D01*
X113266196Y-77116924D01*
X113493299Y-77248041D01*
X113493309Y-77248046D01*
X113735571Y-77348394D01*
X113735581Y-77348398D01*
X113988884Y-77416270D01*
X114248880Y-77450500D01*
X114248887Y-77450500D01*
X114511113Y-77450500D01*
X114511120Y-77450500D01*
X114771116Y-77416270D01*
X115024419Y-77348398D01*
X115266697Y-77248043D01*
X115435239Y-77150736D01*
X157019500Y-77150736D01*
X157019500Y-77589263D01*
X157053905Y-78026424D01*
X157053905Y-78026425D01*
X157122503Y-78459539D01*
X157122504Y-78459542D01*
X157224874Y-78885942D01*
X157224878Y-78885953D01*
X157360380Y-79302991D01*
X157528191Y-79708119D01*
X157528197Y-79708133D01*
X157727279Y-80098855D01*
X157727286Y-80098868D01*
X157727289Y-80098873D01*
X157956397Y-80472742D01*
X157956405Y-80472753D01*
X158214151Y-80827512D01*
X158214161Y-80827526D01*
X158498945Y-81160963D01*
X158498951Y-81160970D01*
X158809030Y-81471049D01*
X158809036Y-81471054D01*
X159142473Y-81755838D01*
X159142480Y-81755843D01*
X159497248Y-82013596D01*
X159497252Y-82013598D01*
X159497257Y-82013602D01*
X159871126Y-82242710D01*
X159871131Y-82242713D01*
X159871136Y-82242715D01*
X159871145Y-82242721D01*
X160261867Y-82441803D01*
X160667003Y-82609617D01*
X160667008Y-82609619D01*
X160773050Y-82644073D01*
X161084058Y-82745126D01*
X161510458Y-82847496D01*
X161943576Y-82916095D01*
X162380742Y-82950500D01*
X162380750Y-82950500D01*
X162819250Y-82950500D01*
X162819258Y-82950500D01*
X163256424Y-82916095D01*
X163689542Y-82847496D01*
X164115942Y-82745126D01*
X164532997Y-82609617D01*
X164938133Y-82441803D01*
X165328855Y-82242721D01*
X165702752Y-82013596D01*
X166057520Y-81755843D01*
X166390970Y-81471049D01*
X166701049Y-81160970D01*
X166985843Y-80827520D01*
X167243596Y-80472752D01*
X167472721Y-80098855D01*
X167671803Y-79708133D01*
X167839617Y-79302997D01*
X167975126Y-78885942D01*
X168077496Y-78459542D01*
X168146095Y-78026424D01*
X168180500Y-77589258D01*
X168180500Y-77150742D01*
X168146095Y-76713576D01*
X168077496Y-76280458D01*
X167975126Y-75854058D01*
X167839617Y-75437003D01*
X167671803Y-75031867D01*
X167472721Y-74641145D01*
X167472715Y-74641136D01*
X167472713Y-74641131D01*
X167472710Y-74641126D01*
X167243602Y-74267257D01*
X167243598Y-74267252D01*
X167243596Y-74267248D01*
X166985843Y-73912480D01*
X166985838Y-73912473D01*
X166701054Y-73579036D01*
X166701049Y-73579030D01*
X166390970Y-73268951D01*
X166390963Y-73268945D01*
X166057526Y-72984161D01*
X166057512Y-72984151D01*
X165702753Y-72726405D01*
X165702742Y-72726397D01*
X165328873Y-72497289D01*
X165328868Y-72497286D01*
X165328858Y-72497281D01*
X165328855Y-72497279D01*
X164938133Y-72298197D01*
X164938119Y-72298191D01*
X164532991Y-72130380D01*
X164236256Y-72033966D01*
X164115942Y-71994874D01*
X163959357Y-71957281D01*
X163689539Y-71892503D01*
X163256425Y-71823905D01*
X162819263Y-71789500D01*
X162819258Y-71789500D01*
X162380742Y-71789500D01*
X162380736Y-71789500D01*
X161943575Y-71823905D01*
X161943574Y-71823905D01*
X161510460Y-71892503D01*
X161084069Y-71994871D01*
X161084063Y-71994872D01*
X161084058Y-71994874D01*
X161084046Y-71994878D01*
X160667008Y-72130380D01*
X160261880Y-72298191D01*
X160261867Y-72298197D01*
X159871131Y-72497286D01*
X159871126Y-72497289D01*
X159497257Y-72726397D01*
X159497246Y-72726405D01*
X159142487Y-72984151D01*
X159142473Y-72984161D01*
X158809036Y-73268945D01*
X158809022Y-73268958D01*
X158498958Y-73579022D01*
X158498945Y-73579036D01*
X158214161Y-73912473D01*
X158214151Y-73912487D01*
X157956405Y-74267246D01*
X157956397Y-74267257D01*
X157727289Y-74641126D01*
X157727286Y-74641131D01*
X157528197Y-75031867D01*
X157528191Y-75031880D01*
X157360380Y-75437008D01*
X157224878Y-75854046D01*
X157224871Y-75854069D01*
X157122503Y-76280460D01*
X157053905Y-76713574D01*
X157053905Y-76713575D01*
X157019500Y-77150736D01*
X115435239Y-77150736D01*
X115493803Y-77116924D01*
X115701851Y-76957282D01*
X115701855Y-76957277D01*
X115701860Y-76957274D01*
X115887274Y-76771860D01*
X115887277Y-76771855D01*
X115887282Y-76771851D01*
X116046924Y-76563803D01*
X116178043Y-76336697D01*
X116278398Y-76094419D01*
X116346270Y-75841116D01*
X116380500Y-75581120D01*
X116380500Y-75318880D01*
X116346270Y-75058884D01*
X116278398Y-74805581D01*
X116278394Y-74805571D01*
X116178046Y-74563309D01*
X116178041Y-74563299D01*
X116046924Y-74336196D01*
X115887281Y-74128148D01*
X115887274Y-74128140D01*
X115701860Y-73942726D01*
X115701851Y-73942718D01*
X115493803Y-73783075D01*
X115266700Y-73651958D01*
X115266690Y-73651953D01*
X115024428Y-73551605D01*
X115024421Y-73551603D01*
X115024419Y-73551602D01*
X114771116Y-73483730D01*
X114713339Y-73476123D01*
X114511127Y-73449500D01*
X114511120Y-73449500D01*
X114248880Y-73449500D01*
X114248872Y-73449500D01*
X114017772Y-73479926D01*
X113988884Y-73483730D01*
X113735581Y-73551602D01*
X113735571Y-73551605D01*
X113493309Y-73651953D01*
X113493299Y-73651958D01*
X113266196Y-73783075D01*
X113058148Y-73942718D01*
X112872718Y-74128148D01*
X112713075Y-74336196D01*
X112581958Y-74563299D01*
X112581953Y-74563309D01*
X112481605Y-74805571D01*
X112481602Y-74805581D01*
X112413730Y-75058885D01*
X112379500Y-75318872D01*
X108196500Y-75318872D01*
X108196500Y-70318872D01*
X112379500Y-70318872D01*
X112379500Y-70581127D01*
X112406123Y-70783339D01*
X112413730Y-70841116D01*
X112478861Y-71084189D01*
X112481602Y-71094418D01*
X112481605Y-71094428D01*
X112581953Y-71336690D01*
X112581958Y-71336700D01*
X112713075Y-71563803D01*
X112872718Y-71771851D01*
X112872726Y-71771860D01*
X113058140Y-71957274D01*
X113058148Y-71957281D01*
X113266196Y-72116924D01*
X113493299Y-72248041D01*
X113493309Y-72248046D01*
X113735571Y-72348394D01*
X113735581Y-72348398D01*
X113988884Y-72416270D01*
X114248880Y-72450500D01*
X114248887Y-72450500D01*
X114511113Y-72450500D01*
X114511120Y-72450500D01*
X114771116Y-72416270D01*
X115024419Y-72348398D01*
X115266697Y-72248043D01*
X115493803Y-72116924D01*
X115701851Y-71957282D01*
X115701855Y-71957277D01*
X115701860Y-71957274D01*
X115887274Y-71771860D01*
X115887277Y-71771855D01*
X115887282Y-71771851D01*
X116046924Y-71563803D01*
X116178043Y-71336697D01*
X116278398Y-71094419D01*
X116346270Y-70841116D01*
X116380500Y-70581120D01*
X116380500Y-70318880D01*
X116346270Y-70058884D01*
X116280704Y-69814189D01*
X124629500Y-69814189D01*
X124629500Y-69987411D01*
X124656598Y-70158501D01*
X124710127Y-70323245D01*
X124788768Y-70477588D01*
X124890586Y-70617728D01*
X125013072Y-70740214D01*
X125153212Y-70842032D01*
X125307555Y-70920673D01*
X125472299Y-70974202D01*
X125643389Y-71001300D01*
X125643390Y-71001300D01*
X125775500Y-71001300D01*
X125842539Y-71020985D01*
X125888294Y-71073789D01*
X125899500Y-71125300D01*
X125899500Y-71257410D01*
X125912056Y-71336690D01*
X125926598Y-71428501D01*
X125980127Y-71593245D01*
X126058768Y-71747588D01*
X126160586Y-71887728D01*
X126283072Y-72010214D01*
X126423212Y-72112032D01*
X126577555Y-72190673D01*
X126742299Y-72244202D01*
X126913389Y-72271300D01*
X126913390Y-72271300D01*
X127086610Y-72271300D01*
X127086611Y-72271300D01*
X127257701Y-72244202D01*
X127422445Y-72190673D01*
X127576788Y-72112032D01*
X127716928Y-72010214D01*
X127839414Y-71887728D01*
X127941232Y-71747588D01*
X128019873Y-71593245D01*
X128073402Y-71428501D01*
X128100500Y-71257411D01*
X128100500Y-71125300D01*
X128120185Y-71058261D01*
X128172989Y-71012506D01*
X128224500Y-71001300D01*
X128356610Y-71001300D01*
X128356611Y-71001300D01*
X128527701Y-70974202D01*
X128692445Y-70920673D01*
X128846788Y-70842032D01*
X128986928Y-70740214D01*
X129109414Y-70617728D01*
X129211232Y-70477588D01*
X129289873Y-70323245D01*
X129343402Y-70158501D01*
X129370500Y-69987411D01*
X129370500Y-69814189D01*
X129343402Y-69643099D01*
X129289873Y-69478355D01*
X129211232Y-69324012D01*
X129109414Y-69183872D01*
X128986928Y-69061386D01*
X128882684Y-68985648D01*
X131541500Y-68985648D01*
X131541500Y-69190351D01*
X131573522Y-69392534D01*
X131636781Y-69587223D01*
X131729715Y-69769613D01*
X131850028Y-69935213D01*
X131994786Y-70079971D01*
X132149749Y-70192556D01*
X132160390Y-70200287D01*
X132276607Y-70259503D01*
X132342776Y-70293218D01*
X132342778Y-70293218D01*
X132342781Y-70293220D01*
X132435195Y-70323247D01*
X132537465Y-70356477D01*
X132638557Y-70372488D01*
X132739648Y-70388500D01*
X132739649Y-70388500D01*
X132944351Y-70388500D01*
X132944352Y-70388500D01*
X133146534Y-70356477D01*
X133341219Y-70293220D01*
X133523610Y-70200287D01*
X133616590Y-70132732D01*
X133689213Y-70079971D01*
X133689215Y-70079968D01*
X133689219Y-70079966D01*
X133833966Y-69935219D01*
X133833968Y-69935215D01*
X133833971Y-69935213D01*
X133886732Y-69862590D01*
X133954287Y-69769610D01*
X134047220Y-69587219D01*
X134110477Y-69392534D01*
X134142500Y-69190352D01*
X134142500Y-68985648D01*
X144241500Y-68985648D01*
X144241500Y-69190351D01*
X144273522Y-69392534D01*
X144336781Y-69587223D01*
X144429715Y-69769613D01*
X144550028Y-69935213D01*
X144694786Y-70079971D01*
X144849749Y-70192556D01*
X144860390Y-70200287D01*
X144976607Y-70259503D01*
X145042776Y-70293218D01*
X145042778Y-70293218D01*
X145042781Y-70293220D01*
X145135195Y-70323247D01*
X145237465Y-70356477D01*
X145338557Y-70372488D01*
X145439648Y-70388500D01*
X145439649Y-70388500D01*
X145644351Y-70388500D01*
X145644352Y-70388500D01*
X145846534Y-70356477D01*
X146041219Y-70293220D01*
X146223610Y-70200287D01*
X146316590Y-70132732D01*
X146389213Y-70079971D01*
X146389215Y-70079968D01*
X146389219Y-70079966D01*
X146533966Y-69935219D01*
X146533968Y-69935215D01*
X146533971Y-69935213D01*
X146586732Y-69862590D01*
X146654287Y-69769610D01*
X146747220Y-69587219D01*
X146810477Y-69392534D01*
X146842500Y-69190352D01*
X146842500Y-68985648D01*
X146825914Y-68880927D01*
X146810477Y-68783465D01*
X146747218Y-68588776D01*
X146699795Y-68495705D01*
X146654287Y-68406390D01*
X146580371Y-68304652D01*
X146533971Y-68240786D01*
X146389213Y-68096028D01*
X146223613Y-67975715D01*
X146223612Y-67975714D01*
X146223610Y-67975713D01*
X146166653Y-67946691D01*
X146041223Y-67882781D01*
X145846534Y-67819522D01*
X145671995Y-67791878D01*
X145644352Y-67787500D01*
X145439648Y-67787500D01*
X145415329Y-67791351D01*
X145237465Y-67819522D01*
X145042776Y-67882781D01*
X144860386Y-67975715D01*
X144694786Y-68096028D01*
X144550028Y-68240786D01*
X144429715Y-68406386D01*
X144336781Y-68588776D01*
X144273522Y-68783465D01*
X144241500Y-68985648D01*
X134142500Y-68985648D01*
X134125914Y-68880927D01*
X134110477Y-68783465D01*
X134047218Y-68588776D01*
X133999795Y-68495705D01*
X133954287Y-68406390D01*
X133880371Y-68304652D01*
X133833971Y-68240786D01*
X133689213Y-68096028D01*
X133523613Y-67975715D01*
X133523612Y-67975714D01*
X133523610Y-67975713D01*
X133466653Y-67946691D01*
X133341223Y-67882781D01*
X133146534Y-67819522D01*
X132971995Y-67791878D01*
X132944352Y-67787500D01*
X132739648Y-67787500D01*
X132715329Y-67791351D01*
X132537465Y-67819522D01*
X132342776Y-67882781D01*
X132160386Y-67975715D01*
X131994786Y-68096028D01*
X131850028Y-68240786D01*
X131729715Y-68406386D01*
X131636781Y-68588776D01*
X131573522Y-68783465D01*
X131541500Y-68985648D01*
X128882684Y-68985648D01*
X128846788Y-68959568D01*
X128692445Y-68880927D01*
X128527701Y-68827398D01*
X128527699Y-68827397D01*
X128527698Y-68827397D01*
X128396271Y-68806581D01*
X128356611Y-68800300D01*
X128183389Y-68800300D01*
X128151192Y-68805399D01*
X128012301Y-68827397D01*
X127866624Y-68874731D01*
X127828306Y-68880800D01*
X127244975Y-68880800D01*
X127280070Y-68845705D01*
X127326148Y-68765895D01*
X127350000Y-68676878D01*
X127350000Y-68584722D01*
X127326148Y-68495705D01*
X127280070Y-68415895D01*
X127244975Y-68380800D01*
X127250000Y-68380800D01*
X128100000Y-68380800D01*
X128100000Y-68344228D01*
X128072914Y-68173215D01*
X128019408Y-68008542D01*
X127940804Y-67854275D01*
X127839032Y-67714197D01*
X127716602Y-67591767D01*
X127576524Y-67489995D01*
X127422257Y-67411391D01*
X127257589Y-67357887D01*
X127257581Y-67357885D01*
X127250000Y-67356684D01*
X127250000Y-68380800D01*
X127244975Y-68380800D01*
X127214905Y-68350730D01*
X127135095Y-68304652D01*
X127046078Y-68280800D01*
X126953922Y-68280800D01*
X126864905Y-68304652D01*
X126785095Y-68350730D01*
X126719930Y-68415895D01*
X126673852Y-68495705D01*
X126650000Y-68584722D01*
X126650000Y-68676878D01*
X126673852Y-68765895D01*
X126719930Y-68845705D01*
X126755025Y-68880800D01*
X126171694Y-68880800D01*
X126133376Y-68874731D01*
X125987698Y-68827397D01*
X125856271Y-68806581D01*
X125816611Y-68800300D01*
X125643389Y-68800300D01*
X125603728Y-68806581D01*
X125472302Y-68827397D01*
X125307552Y-68880928D01*
X125153211Y-68959568D01*
X125117316Y-68985648D01*
X125013072Y-69061386D01*
X125013070Y-69061388D01*
X125013069Y-69061388D01*
X124890588Y-69183869D01*
X124890588Y-69183870D01*
X124890586Y-69183872D01*
X124885879Y-69190351D01*
X124788768Y-69324011D01*
X124710128Y-69478352D01*
X124656597Y-69643102D01*
X124636560Y-69769613D01*
X124629500Y-69814189D01*
X116280704Y-69814189D01*
X116278398Y-69805581D01*
X116187951Y-69587223D01*
X116178046Y-69563309D01*
X116178041Y-69563299D01*
X116046924Y-69336196D01*
X115887281Y-69128148D01*
X115887274Y-69128140D01*
X115701860Y-68942726D01*
X115701851Y-68942718D01*
X115493803Y-68783075D01*
X115266700Y-68651958D01*
X115266690Y-68651953D01*
X115024428Y-68551605D01*
X115024421Y-68551603D01*
X115024419Y-68551602D01*
X114771116Y-68483730D01*
X114605826Y-68461968D01*
X114511127Y-68449500D01*
X114511120Y-68449500D01*
X114248880Y-68449500D01*
X114248872Y-68449500D01*
X114017772Y-68479926D01*
X113988884Y-68483730D01*
X113735581Y-68551602D01*
X113735571Y-68551605D01*
X113493309Y-68651953D01*
X113493299Y-68651958D01*
X113266196Y-68783075D01*
X113058148Y-68942718D01*
X112872718Y-69128148D01*
X112713075Y-69336196D01*
X112581958Y-69563299D01*
X112581953Y-69563309D01*
X112481605Y-69805571D01*
X112481603Y-69805578D01*
X112481602Y-69805581D01*
X112446868Y-69935213D01*
X112413730Y-70058885D01*
X112379500Y-70318872D01*
X108196500Y-70318872D01*
X108196500Y-68344228D01*
X125900000Y-68344228D01*
X125900000Y-68380800D01*
X126750000Y-68380800D01*
X126750000Y-67356684D01*
X126749999Y-67356684D01*
X126742418Y-67357885D01*
X126742410Y-67357887D01*
X126577742Y-67411391D01*
X126423475Y-67489995D01*
X126283397Y-67591767D01*
X126160967Y-67714197D01*
X126059195Y-67854275D01*
X125980591Y-68008542D01*
X125927085Y-68173215D01*
X125900000Y-68344228D01*
X108196500Y-68344228D01*
X108196500Y-63902155D01*
X112380000Y-63902155D01*
X112380000Y-65200000D01*
X113831518Y-65200000D01*
X113820889Y-65218409D01*
X113780000Y-65371009D01*
X113780000Y-65528991D01*
X113820889Y-65681591D01*
X113831518Y-65700000D01*
X112380000Y-65700000D01*
X112380000Y-66997844D01*
X112386401Y-67057372D01*
X112386403Y-67057379D01*
X112436645Y-67192086D01*
X112436649Y-67192093D01*
X112522809Y-67307187D01*
X112522812Y-67307190D01*
X112637906Y-67393350D01*
X112637913Y-67393354D01*
X112772620Y-67443596D01*
X112772627Y-67443598D01*
X112832155Y-67449999D01*
X112832172Y-67450000D01*
X114130000Y-67450000D01*
X114130000Y-65998482D01*
X114148409Y-66009111D01*
X114301009Y-66050000D01*
X114458991Y-66050000D01*
X114611591Y-66009111D01*
X114630000Y-65998482D01*
X114630000Y-67450000D01*
X115927828Y-67450000D01*
X115927844Y-67449999D01*
X115987372Y-67443598D01*
X115987379Y-67443596D01*
X116122086Y-67393354D01*
X116122093Y-67393350D01*
X116237187Y-67307190D01*
X116237190Y-67307187D01*
X116323350Y-67192093D01*
X116323354Y-67192086D01*
X116373596Y-67057379D01*
X116373598Y-67057372D01*
X116379999Y-66997844D01*
X116380000Y-66997827D01*
X116380000Y-65700000D01*
X114928482Y-65700000D01*
X114939111Y-65681591D01*
X114980000Y-65528991D01*
X114980000Y-65371009D01*
X114939111Y-65218409D01*
X114928482Y-65200000D01*
X116380000Y-65200000D01*
X116380000Y-63902172D01*
X116379999Y-63902155D01*
X116373598Y-63842627D01*
X116373596Y-63842620D01*
X116323354Y-63707913D01*
X116323350Y-63707906D01*
X116237190Y-63592812D01*
X116237187Y-63592809D01*
X116122093Y-63506649D01*
X116122086Y-63506645D01*
X115987379Y-63456403D01*
X115987372Y-63456401D01*
X115927844Y-63450000D01*
X114630000Y-63450000D01*
X114630000Y-64901517D01*
X114611591Y-64890889D01*
X114458991Y-64850000D01*
X114301009Y-64850000D01*
X114148409Y-64890889D01*
X114130000Y-64901517D01*
X114130000Y-63450000D01*
X112832155Y-63450000D01*
X112772627Y-63456401D01*
X112772620Y-63456403D01*
X112637913Y-63506645D01*
X112637906Y-63506649D01*
X112522812Y-63592809D01*
X112522809Y-63592812D01*
X112436649Y-63707906D01*
X112436645Y-63707913D01*
X112386403Y-63842620D01*
X112386401Y-63842627D01*
X112380000Y-63902155D01*
X108196500Y-63902155D01*
X108196500Y-59790848D01*
X140831351Y-59790848D01*
X140831351Y-59995551D01*
X140863373Y-60197734D01*
X140926632Y-60392423D01*
X141019566Y-60574813D01*
X141139879Y-60740413D01*
X141284637Y-60885171D01*
X141439600Y-60997756D01*
X141450241Y-61005487D01*
X141566458Y-61064703D01*
X141632627Y-61098418D01*
X141632629Y-61098418D01*
X141632632Y-61098420D01*
X141723707Y-61128012D01*
X141827316Y-61161677D01*
X141928408Y-61177688D01*
X142029499Y-61193700D01*
X142029500Y-61193700D01*
X142234202Y-61193700D01*
X142234203Y-61193700D01*
X142436385Y-61161677D01*
X142631070Y-61098420D01*
X142813461Y-61005487D01*
X142942333Y-60911857D01*
X142979064Y-60885171D01*
X142979066Y-60885168D01*
X142979070Y-60885166D01*
X143123817Y-60740419D01*
X143123819Y-60740415D01*
X143123822Y-60740413D01*
X143228743Y-60595999D01*
X143244138Y-60574810D01*
X143337071Y-60392419D01*
X143400328Y-60197734D01*
X143432351Y-59995552D01*
X143432351Y-59790848D01*
X143400328Y-59588666D01*
X143337071Y-59393981D01*
X143337069Y-59393978D01*
X143337069Y-59393976D01*
X143312791Y-59346329D01*
X143285712Y-59293183D01*
X145831351Y-59293183D01*
X145831351Y-60493201D01*
X145831352Y-60493218D01*
X145841851Y-60595996D01*
X145841852Y-60595999D01*
X145889707Y-60740413D01*
X145897037Y-60762534D01*
X145989139Y-60911856D01*
X146113195Y-61035912D01*
X146262517Y-61128014D01*
X146429054Y-61183199D01*
X146531842Y-61193700D01*
X147731859Y-61193699D01*
X147834648Y-61183199D01*
X148001185Y-61128014D01*
X148150507Y-61035912D01*
X148274563Y-60911856D01*
X148366665Y-60762534D01*
X148421850Y-60595997D01*
X148432351Y-60493209D01*
X148432350Y-59293192D01*
X148421850Y-59190403D01*
X148366665Y-59023866D01*
X148274563Y-58874544D01*
X148150507Y-58750488D01*
X148001185Y-58658386D01*
X147834648Y-58603201D01*
X147834646Y-58603200D01*
X147731861Y-58592700D01*
X146531849Y-58592700D01*
X146531832Y-58592701D01*
X146429054Y-58603200D01*
X146429051Y-58603201D01*
X146262519Y-58658385D01*
X146262514Y-58658387D01*
X146113193Y-58750489D01*
X145989140Y-58874542D01*
X145897038Y-59023863D01*
X145897037Y-59023866D01*
X145841852Y-59190403D01*
X145841852Y-59190404D01*
X145841851Y-59190404D01*
X145831351Y-59293183D01*
X143285712Y-59293183D01*
X143244135Y-59211585D01*
X143123822Y-59045986D01*
X142979064Y-58901228D01*
X142813464Y-58780915D01*
X142813463Y-58780914D01*
X142813461Y-58780913D01*
X142753749Y-58750488D01*
X142631074Y-58687981D01*
X142436385Y-58624722D01*
X142261846Y-58597078D01*
X142234203Y-58592700D01*
X142029499Y-58592700D01*
X142005180Y-58596551D01*
X141827316Y-58624722D01*
X141632627Y-58687981D01*
X141450237Y-58780915D01*
X141284637Y-58901228D01*
X141139879Y-59045986D01*
X141019566Y-59211586D01*
X140926632Y-59393976D01*
X140863373Y-59588665D01*
X140831351Y-59790848D01*
X108196500Y-59790848D01*
X108196500Y-46770755D01*
X109498000Y-46770755D01*
X109498000Y-47209244D01*
X109532402Y-47646355D01*
X109532404Y-47646374D01*
X109600995Y-48079438D01*
X109703353Y-48505794D01*
X109703360Y-48505817D01*
X109838850Y-48922817D01*
X110006646Y-49327910D01*
X110006652Y-49327923D01*
X110205723Y-49718623D01*
X110205726Y-49718629D01*
X110434810Y-50092458D01*
X110434824Y-50092480D01*
X110692554Y-50447213D01*
X110692566Y-50447228D01*
X110957279Y-50757167D01*
X112750818Y-48963627D01*
X112800208Y-49025560D01*
X113042440Y-49267792D01*
X113104371Y-49317180D01*
X111310831Y-51110719D01*
X111310831Y-51110720D01*
X111620771Y-51375433D01*
X111620786Y-51375445D01*
X111975519Y-51633175D01*
X111975541Y-51633189D01*
X112349370Y-51862273D01*
X112349376Y-51862276D01*
X112740076Y-52061347D01*
X112740089Y-52061353D01*
X113145182Y-52229149D01*
X113562182Y-52364639D01*
X113562205Y-52364646D01*
X113988561Y-52467004D01*
X114421625Y-52535595D01*
X114421644Y-52535597D01*
X114858755Y-52569999D01*
X114858769Y-52570000D01*
X115297231Y-52570000D01*
X115297244Y-52569999D01*
X115734355Y-52535597D01*
X115734374Y-52535595D01*
X116167438Y-52467004D01*
X116593794Y-52364646D01*
X116593817Y-52364639D01*
X117010817Y-52229149D01*
X117415910Y-52061353D01*
X117415923Y-52061347D01*
X117806623Y-51862276D01*
X117806629Y-51862273D01*
X118180458Y-51633189D01*
X118180480Y-51633175D01*
X118535213Y-51375445D01*
X118535215Y-51375443D01*
X118845167Y-51110719D01*
X117051628Y-49317180D01*
X117113560Y-49267792D01*
X117355792Y-49025560D01*
X117405180Y-48963628D01*
X119198719Y-50757167D01*
X119463443Y-50447215D01*
X119463445Y-50447213D01*
X119721175Y-50092480D01*
X119721189Y-50092458D01*
X119950273Y-49718629D01*
X119950276Y-49718623D01*
X120149347Y-49327923D01*
X120149353Y-49327910D01*
X120317149Y-48922817D01*
X120452639Y-48505817D01*
X120452646Y-48505794D01*
X120555004Y-48079438D01*
X120623595Y-47646374D01*
X120623597Y-47646355D01*
X120657999Y-47209244D01*
X120658000Y-47209231D01*
X120658000Y-46770766D01*
X120657999Y-46770758D01*
X120657997Y-46770736D01*
X139467500Y-46770736D01*
X139467500Y-47209263D01*
X139501905Y-47646424D01*
X139501905Y-47646425D01*
X139570503Y-48079539D01*
X139570504Y-48079542D01*
X139672874Y-48505942D01*
X139672878Y-48505953D01*
X139808380Y-48922991D01*
X139976110Y-49327923D01*
X139976197Y-49328133D01*
X140175161Y-49718623D01*
X140175286Y-49718868D01*
X140175289Y-49718873D01*
X140404397Y-50092742D01*
X140404405Y-50092753D01*
X140662151Y-50447512D01*
X140662161Y-50447526D01*
X140926621Y-50757167D01*
X140946951Y-50780970D01*
X141257030Y-51091049D01*
X141257036Y-51091054D01*
X141590473Y-51375838D01*
X141590480Y-51375843D01*
X141945248Y-51633596D01*
X141945252Y-51633598D01*
X141945257Y-51633602D01*
X142319126Y-51862710D01*
X142319131Y-51862713D01*
X142319136Y-51862715D01*
X142319145Y-51862721D01*
X142709867Y-52061803D01*
X143113873Y-52229149D01*
X143115008Y-52229619D01*
X143221050Y-52264073D01*
X143532058Y-52365126D01*
X143958458Y-52467496D01*
X144391576Y-52536095D01*
X144828742Y-52570500D01*
X144828750Y-52570500D01*
X145267250Y-52570500D01*
X145267258Y-52570500D01*
X145704424Y-52536095D01*
X146137542Y-52467496D01*
X146563942Y-52365126D01*
X146980997Y-52229617D01*
X147386133Y-52061803D01*
X147776855Y-51862721D01*
X148150752Y-51633596D01*
X148505520Y-51375843D01*
X148838970Y-51091049D01*
X149149049Y-50780970D01*
X149433843Y-50447520D01*
X149691596Y-50092752D01*
X149920721Y-49718855D01*
X150119803Y-49328133D01*
X150287617Y-48922997D01*
X150287676Y-48922817D01*
X150292252Y-48908729D01*
X150423126Y-48505942D01*
X150525496Y-48079542D01*
X150594095Y-47646424D01*
X150628500Y-47209258D01*
X150628500Y-47180755D01*
X157020000Y-47180755D01*
X157020000Y-47619244D01*
X157054402Y-48056355D01*
X157054404Y-48056374D01*
X157122995Y-48489438D01*
X157225353Y-48915794D01*
X157225360Y-48915817D01*
X157360850Y-49332817D01*
X157528646Y-49737910D01*
X157528652Y-49737923D01*
X157727723Y-50128623D01*
X157727726Y-50128629D01*
X157956810Y-50502458D01*
X157956824Y-50502480D01*
X158214554Y-50857213D01*
X158214566Y-50857228D01*
X158479279Y-51167167D01*
X160272818Y-49373627D01*
X160322208Y-49435560D01*
X160564440Y-49677792D01*
X160626371Y-49727180D01*
X158832831Y-51520719D01*
X158832831Y-51520720D01*
X159142771Y-51785433D01*
X159142786Y-51785445D01*
X159497519Y-52043175D01*
X159497541Y-52043189D01*
X159871370Y-52272273D01*
X159871376Y-52272276D01*
X160262076Y-52471347D01*
X160262089Y-52471353D01*
X160667182Y-52639149D01*
X161084182Y-52774639D01*
X161084205Y-52774646D01*
X161510561Y-52877004D01*
X161943625Y-52945595D01*
X161943644Y-52945597D01*
X162380755Y-52979999D01*
X162380769Y-52980000D01*
X162819231Y-52980000D01*
X162819244Y-52979999D01*
X163256355Y-52945597D01*
X163256374Y-52945595D01*
X163689438Y-52877004D01*
X164115794Y-52774646D01*
X164115817Y-52774639D01*
X164532817Y-52639149D01*
X164937910Y-52471353D01*
X164937923Y-52471347D01*
X165328623Y-52272276D01*
X165328629Y-52272273D01*
X165702458Y-52043189D01*
X165702480Y-52043175D01*
X166057213Y-51785445D01*
X166057215Y-51785443D01*
X166367167Y-51520719D01*
X164573628Y-49727180D01*
X164635560Y-49677792D01*
X164877792Y-49435560D01*
X164927180Y-49373628D01*
X166720719Y-51167167D01*
X166985443Y-50857215D01*
X166985445Y-50857213D01*
X167243175Y-50502480D01*
X167243189Y-50502458D01*
X167472273Y-50128629D01*
X167472276Y-50128623D01*
X167671347Y-49737923D01*
X167671353Y-49737910D01*
X167839149Y-49332817D01*
X167974639Y-48915817D01*
X167974646Y-48915794D01*
X168077004Y-48489438D01*
X168145595Y-48056374D01*
X168145597Y-48056355D01*
X168179999Y-47619244D01*
X168180000Y-47619231D01*
X168180000Y-47180768D01*
X168179999Y-47180755D01*
X168145597Y-46743644D01*
X168145595Y-46743625D01*
X168077004Y-46310561D01*
X167974646Y-45884205D01*
X167974639Y-45884182D01*
X167839149Y-45467182D01*
X167671353Y-45062089D01*
X167671347Y-45062076D01*
X167472276Y-44671376D01*
X167472273Y-44671370D01*
X167243189Y-44297541D01*
X167243175Y-44297519D01*
X166985445Y-43942786D01*
X166985433Y-43942771D01*
X166720719Y-43632831D01*
X164927180Y-45426370D01*
X164877792Y-45364440D01*
X164635560Y-45122208D01*
X164573627Y-45072818D01*
X166367167Y-43279279D01*
X166367167Y-43279278D01*
X166057228Y-43014566D01*
X166057213Y-43014554D01*
X165702480Y-42756824D01*
X165702458Y-42756810D01*
X165328629Y-42527726D01*
X165328623Y-42527723D01*
X164937923Y-42328652D01*
X164937910Y-42328646D01*
X164532817Y-42160850D01*
X164115817Y-42025360D01*
X164115794Y-42025353D01*
X163689438Y-41922995D01*
X163256374Y-41854404D01*
X163256355Y-41854402D01*
X162819244Y-41820000D01*
X162380755Y-41820000D01*
X161943644Y-41854402D01*
X161943625Y-41854404D01*
X161510561Y-41922995D01*
X161084205Y-42025353D01*
X161084182Y-42025360D01*
X160667182Y-42160850D01*
X160262089Y-42328646D01*
X160262076Y-42328652D01*
X159871376Y-42527723D01*
X159871370Y-42527726D01*
X159497541Y-42756810D01*
X159497519Y-42756824D01*
X159142786Y-43014554D01*
X158832831Y-43279279D01*
X160626371Y-45072819D01*
X160564440Y-45122208D01*
X160322208Y-45364440D01*
X160272819Y-45426371D01*
X158479279Y-43632831D01*
X158214554Y-43942786D01*
X157956824Y-44297519D01*
X157956810Y-44297541D01*
X157727726Y-44671370D01*
X157727723Y-44671376D01*
X157528652Y-45062076D01*
X157528646Y-45062089D01*
X157360850Y-45467182D01*
X157225360Y-45884182D01*
X157225353Y-45884205D01*
X157122995Y-46310561D01*
X157054404Y-46743625D01*
X157054402Y-46743644D01*
X157020000Y-47180755D01*
X150628500Y-47180755D01*
X150628500Y-46770742D01*
X150594095Y-46333576D01*
X150525496Y-45900458D01*
X150423126Y-45474058D01*
X150289270Y-45062089D01*
X150287619Y-45057008D01*
X150119895Y-44652089D01*
X150119803Y-44651867D01*
X149920721Y-44261145D01*
X149920715Y-44261136D01*
X149920713Y-44261131D01*
X149920710Y-44261126D01*
X149691602Y-43887257D01*
X149691598Y-43887252D01*
X149691596Y-43887248D01*
X149433843Y-43532480D01*
X149430240Y-43528262D01*
X149328501Y-43409140D01*
X149149054Y-43199036D01*
X149149049Y-43199030D01*
X148838970Y-42888951D01*
X148684270Y-42756824D01*
X148505526Y-42604161D01*
X148505512Y-42604151D01*
X148151330Y-42346824D01*
X148150752Y-42346404D01*
X148150749Y-42346402D01*
X148150742Y-42346397D01*
X147776873Y-42117289D01*
X147776868Y-42117286D01*
X147776858Y-42117281D01*
X147776855Y-42117279D01*
X147386133Y-41918197D01*
X147386119Y-41918191D01*
X146980991Y-41750380D01*
X146684256Y-41653966D01*
X146563942Y-41614874D01*
X146563930Y-41614871D01*
X146137539Y-41512503D01*
X145704425Y-41443905D01*
X145267263Y-41409500D01*
X145267258Y-41409500D01*
X144828742Y-41409500D01*
X144828736Y-41409500D01*
X144391575Y-41443905D01*
X144391574Y-41443905D01*
X143958460Y-41512503D01*
X143532069Y-41614871D01*
X143532063Y-41614872D01*
X143532058Y-41614874D01*
X143503523Y-41624145D01*
X143115008Y-41750380D01*
X142709880Y-41918191D01*
X142709867Y-41918197D01*
X142319131Y-42117286D01*
X142319126Y-42117289D01*
X141945257Y-42346397D01*
X141945246Y-42346405D01*
X141590487Y-42604151D01*
X141590473Y-42604161D01*
X141257036Y-42888945D01*
X141257022Y-42888958D01*
X140946958Y-43199022D01*
X140946945Y-43199036D01*
X140662161Y-43532473D01*
X140662151Y-43532487D01*
X140404405Y-43887246D01*
X140404397Y-43887257D01*
X140175289Y-44261126D01*
X140175286Y-44261131D01*
X139976197Y-44651867D01*
X139976191Y-44651880D01*
X139808380Y-45057008D01*
X139672878Y-45474046D01*
X139672871Y-45474069D01*
X139570503Y-45900460D01*
X139501905Y-46333574D01*
X139501905Y-46333575D01*
X139467500Y-46770736D01*
X120657997Y-46770736D01*
X120623597Y-46333644D01*
X120623595Y-46333625D01*
X120555004Y-45900561D01*
X120452646Y-45474205D01*
X120452639Y-45474182D01*
X120317149Y-45057182D01*
X120149353Y-44652089D01*
X120149347Y-44652076D01*
X119950276Y-44261376D01*
X119950273Y-44261370D01*
X119721189Y-43887541D01*
X119721175Y-43887519D01*
X119463445Y-43532786D01*
X119463433Y-43532771D01*
X119198719Y-43222831D01*
X117405180Y-45016370D01*
X117355792Y-44954440D01*
X117113560Y-44712208D01*
X117051627Y-44662818D01*
X118845167Y-42869279D01*
X118845167Y-42869278D01*
X118535228Y-42604566D01*
X118535213Y-42604554D01*
X118180480Y-42346824D01*
X118180458Y-42346810D01*
X117806629Y-42117726D01*
X117806623Y-42117723D01*
X117415923Y-41918652D01*
X117415910Y-41918646D01*
X117010817Y-41750850D01*
X116593817Y-41615360D01*
X116593794Y-41615353D01*
X116167438Y-41512995D01*
X115734374Y-41444404D01*
X115734355Y-41444402D01*
X115297244Y-41410000D01*
X114858755Y-41410000D01*
X114421644Y-41444402D01*
X114421625Y-41444404D01*
X113988561Y-41512995D01*
X113562205Y-41615353D01*
X113562182Y-41615360D01*
X113145182Y-41750850D01*
X112740089Y-41918646D01*
X112740076Y-41918652D01*
X112349376Y-42117723D01*
X112349370Y-42117726D01*
X111975541Y-42346810D01*
X111975519Y-42346824D01*
X111620786Y-42604554D01*
X111310831Y-42869279D01*
X113104371Y-44662819D01*
X113042440Y-44712208D01*
X112800208Y-44954440D01*
X112750819Y-45016371D01*
X110957279Y-43222831D01*
X110692554Y-43532786D01*
X110434824Y-43887519D01*
X110434810Y-43887541D01*
X110205726Y-44261370D01*
X110205723Y-44261376D01*
X110006652Y-44652076D01*
X110006646Y-44652089D01*
X109838850Y-45057182D01*
X109703360Y-45474182D01*
X109703353Y-45474205D01*
X109600995Y-45900561D01*
X109532404Y-46333625D01*
X109532402Y-46333644D01*
X109498000Y-46770755D01*
X108196500Y-46770755D01*
X108196500Y-38407648D01*
X114015500Y-38407648D01*
X114015500Y-38612351D01*
X114047522Y-38814534D01*
X114110781Y-39009223D01*
X114203715Y-39191613D01*
X114324028Y-39357213D01*
X114468786Y-39501971D01*
X114623749Y-39614556D01*
X114634390Y-39622287D01*
X114750607Y-39681503D01*
X114816776Y-39715218D01*
X114816778Y-39715218D01*
X114816781Y-39715220D01*
X114921137Y-39749127D01*
X115011465Y-39778477D01*
X115112557Y-39794488D01*
X115213648Y-39810500D01*
X115213649Y-39810500D01*
X115418351Y-39810500D01*
X115418352Y-39810500D01*
X115620534Y-39778477D01*
X115815219Y-39715220D01*
X115997610Y-39622287D01*
X116090590Y-39554732D01*
X116163213Y-39501971D01*
X116163215Y-39501968D01*
X116163219Y-39501966D01*
X116307966Y-39357219D01*
X116307968Y-39357215D01*
X116307971Y-39357213D01*
X116360732Y-39284590D01*
X116428287Y-39191610D01*
X116521220Y-39009219D01*
X116584477Y-38814534D01*
X116616500Y-38612352D01*
X116616500Y-38407648D01*
X161259500Y-38407648D01*
X161259500Y-38612351D01*
X161291522Y-38814534D01*
X161354781Y-39009223D01*
X161447715Y-39191613D01*
X161568028Y-39357213D01*
X161712786Y-39501971D01*
X161867749Y-39614556D01*
X161878390Y-39622287D01*
X161994607Y-39681503D01*
X162060776Y-39715218D01*
X162060778Y-39715218D01*
X162060781Y-39715220D01*
X162165137Y-39749127D01*
X162255465Y-39778477D01*
X162356557Y-39794488D01*
X162457648Y-39810500D01*
X162457649Y-39810500D01*
X162662351Y-39810500D01*
X162662352Y-39810500D01*
X162864534Y-39778477D01*
X163059219Y-39715220D01*
X163241610Y-39622287D01*
X163334590Y-39554732D01*
X163407213Y-39501971D01*
X163407215Y-39501968D01*
X163407219Y-39501966D01*
X163551966Y-39357219D01*
X163551968Y-39357215D01*
X163551971Y-39357213D01*
X163604732Y-39284590D01*
X163672287Y-39191610D01*
X163765220Y-39009219D01*
X163828477Y-38814534D01*
X163860500Y-38612352D01*
X163860500Y-38407648D01*
X163828477Y-38205466D01*
X163765220Y-38010781D01*
X163765218Y-38010778D01*
X163765218Y-38010776D01*
X163731503Y-37944607D01*
X163672287Y-37828390D01*
X163664556Y-37817749D01*
X163551971Y-37662786D01*
X163407213Y-37518028D01*
X163241613Y-37397715D01*
X163241612Y-37397714D01*
X163241610Y-37397713D01*
X163184653Y-37368691D01*
X163059223Y-37304781D01*
X162864534Y-37241522D01*
X162689995Y-37213878D01*
X162662352Y-37209500D01*
X162457648Y-37209500D01*
X162433329Y-37213351D01*
X162255465Y-37241522D01*
X162060776Y-37304781D01*
X161878386Y-37397715D01*
X161712786Y-37518028D01*
X161568028Y-37662786D01*
X161447715Y-37828386D01*
X161354781Y-38010776D01*
X161291522Y-38205465D01*
X161259500Y-38407648D01*
X116616500Y-38407648D01*
X116584477Y-38205466D01*
X116521220Y-38010781D01*
X116521218Y-38010778D01*
X116521218Y-38010776D01*
X116487503Y-37944607D01*
X116428287Y-37828390D01*
X116420556Y-37817749D01*
X116307971Y-37662786D01*
X116163213Y-37518028D01*
X115997613Y-37397715D01*
X115997612Y-37397714D01*
X115997610Y-37397713D01*
X115940653Y-37368691D01*
X115815223Y-37304781D01*
X115620534Y-37241522D01*
X115445995Y-37213878D01*
X115418352Y-37209500D01*
X115213648Y-37209500D01*
X115189329Y-37213351D01*
X115011465Y-37241522D01*
X114816776Y-37304781D01*
X114634386Y-37397715D01*
X114468786Y-37518028D01*
X114324028Y-37662786D01*
X114203715Y-37828386D01*
X114110781Y-38010776D01*
X114047522Y-38205465D01*
X114015500Y-38407648D01*
X108196500Y-38407648D01*
X108196500Y-36210500D01*
X108216185Y-36143461D01*
X108268989Y-36097706D01*
X108320500Y-36086500D01*
X168844300Y-36086500D01*
X168911339Y-36106185D01*
G37*
%TD.AperFunction*%
%TD*%
M02*
