M48
; DRILL file {KiCad 9.0.7-unknown-202601171506~52788676f7~ubuntu25.04.1} date 2026-03-02T10:18:56+0530
; FORMAT={-:-/ absolute / metric / decimal}
; #@! TF.CreationDate,2026-03-02T10:18:56+05:30
; #@! TF.GenerationSoftware,Kicad,Pcbnew,9.0.7-unknown-202601171506~52788676f7~ubuntu25.04.1
; #@! TF.FileFunction,Plated,1,2,PTH
FMAT,2
METRIC
; #@! TA.AperFunction,Plated,PTH,ComponentDrill
T1C0.700
; #@! TA.AperFunction,Plated,PTH,ComponentDrill
T2C0.800
; #@! TA.AperFunction,Plated,PTH,ComponentDrill
T3C1.200
; #@! TA.AperFunction,Plated,PTH,ComponentDrill
T4C6.100
%
G90
G05
T1
X125.73Y-69.901
X127.0Y-68.631
X127.0Y-71.171
X128.27Y-69.901
T2
X124.46Y-99.06
X125.832Y-85.649
X125.832Y-88.189
X125.832Y-90.729
X125.832Y-93.269
X132.842Y-69.088
X133.452Y-85.649
X133.452Y-88.189
X133.452Y-90.729
X133.452Y-93.269
X137.16Y-99.06
X142.132Y-59.893
X145.542Y-69.088
X147.132Y-59.893
T3
X114.38Y-65.45
X114.38Y-70.45
X114.38Y-75.45
T4
X115.078Y-46.99
X115.316Y-90.68
X115.316Y-105.66
X115.316Y-120.65
X145.048Y-46.99
X162.43Y-90.42
X162.43Y-120.39
X162.6Y-47.4
X162.6Y-77.37
M30
