%TF.GenerationSoftware,KiCad,Pcbnew,9.0.6*%
%TF.CreationDate,2026-02-16T22:21:33+05:30*%
%TF.ProjectId,new pcb,6e657720-7063-4622-9e6b-696361645f70,rev?*%
%TF.SameCoordinates,Original*%
%TF.FileFunction,Copper,L1,Top*%
%TF.FilePolarity,Positive*%
%FSLAX46Y46*%
G04 Gerber Fmt 4.6, Leading zero omitted, Abs format (unit mm)*
G04 Created by KiCad (PCBNEW 9.0.6) date 2026-02-16 22:21:33*
%MOMM*%
%LPD*%
G01*
G04 APERTURE LIST*
G04 Aperture macros list*
%AMRoundRect*
0 Rectangle with rounded corners*
0 $1 Rounding radius*
0 $2 $3 $4 $5 $6 $7 $8 $9 X,Y pos of 4 corners*
0 Add a 4 corners polygon primitive as box body*
4,1,4,$2,$3,$4,$5,$6,$7,$8,$9,$2,$3,0*
0 Add four circle primitives for the rounded corners*
1,1,$1+$1,$2,$3*
1,1,$1+$1,$4,$5*
1,1,$1+$1,$6,$7*
1,1,$1+$1,$8,$9*
0 Add four rect primitives between the rounded corners*
20,1,$1+$1,$2,$3,$4,$5,0*
20,1,$1+$1,$4,$5,$6,$7,0*
20,1,$1+$1,$6,$7,$8,$9,0*
20,1,$1+$1,$8,$9,$2,$3,0*%
G04 Aperture macros list end*
%TA.AperFunction,ComponentPad*%
%ADD10C,10.160000*%
%TD*%
%TA.AperFunction,ComponentPad*%
%ADD11RoundRect,0.250000X0.550000X0.550000X-0.550000X0.550000X-0.550000X-0.550000X0.550000X-0.550000X0*%
%TD*%
%TA.AperFunction,ComponentPad*%
%ADD12C,1.600000*%
%TD*%
%TA.AperFunction,ComponentPad*%
%ADD13C,1.800000*%
%TD*%
%TA.AperFunction,ComponentPad*%
%ADD14R,1.300000X1.300000*%
%TD*%
%TA.AperFunction,ComponentPad*%
%ADD15C,1.300000*%
%TD*%
%TA.AperFunction,ComponentPad*%
%ADD16RoundRect,0.250000X-0.550000X-0.550000X0.550000X-0.550000X0.550000X0.550000X-0.550000X0.550000X0*%
%TD*%
%TA.AperFunction,Conductor*%
%ADD17C,1.000000*%
%TD*%
G04 APERTURE END LIST*
D10*
%TO.P,MES1,1,-*%
%TO.N,Net-(MES1--)*%
X213000000Y-68000000D03*
%TO.P,MES1,2,+*%
%TO.N,Net-(MES1-+)*%
X242970000Y-68000000D03*
%TD*%
D11*
%TO.P,SW2,1,A*%
%TO.N,GND*%
X231120000Y-98500000D03*
D12*
%TO.P,SW2,2,B*%
%TO.N,Net-(BT2--)*%
X223500000Y-98500000D03*
%TD*%
D10*
%TO.P,BT1,1,+*%
%TO.N,Net-(BT1-+)*%
X161000000Y-95000000D03*
%TO.P,BT1,2,-*%
%TO.N,Net-(BT1--)*%
X161000000Y-65030000D03*
%TD*%
%TO.P,BT2,1,+*%
%TO.N,Net-(BT2-+)*%
X197500000Y-113500000D03*
%TO.P,BT2,2,-*%
%TO.N,Net-(BT2--)*%
X227470000Y-113500000D03*
%TD*%
D13*
%TO.P,RV2,1,1*%
%TO.N,GND*%
X213500000Y-97000000D03*
%TO.P,RV2,2,2*%
%TO.N,Net-(MES2-+)*%
X210960000Y-97000000D03*
%TO.P,RV2,3,3*%
%TO.N,Net-(BT2-+)*%
X208420000Y-97000000D03*
%TD*%
D14*
%TO.P,Q1,1,C*%
%TO.N,Net-(MES2--)*%
X198960000Y-72000000D03*
D15*
%TO.P,Q1,2,B*%
%TO.N,Net-(Q1-B)*%
X200230000Y-70730000D03*
%TO.P,Q1,3,E*%
%TO.N,GND*%
X201500000Y-72000000D03*
%TD*%
D16*
%TO.P,SW1,1,A*%
%TO.N,Net-(BT1--)*%
X185695000Y-71512500D03*
D12*
%TO.P,SW1,2,B*%
%TO.N,GND*%
X193315000Y-71512500D03*
%TD*%
D13*
%TO.P,RV1,1,1*%
%TO.N,unconnected-(RV1-Pad1)*%
X187825000Y-92540000D03*
%TO.P,RV1,2,2*%
%TO.N,Net-(MES1-+)*%
X187825000Y-90000000D03*
%TO.P,RV1,3,3*%
%TO.N,Net-(BT1-+)*%
X187825000Y-87460000D03*
%TD*%
D10*
%TO.P,MES3,1,-*%
%TO.N,GND*%
X243000000Y-110500000D03*
%TO.P,MES3,2,+*%
%TO.N,Net-(MES2-+)*%
X243000000Y-80530000D03*
%TD*%
D12*
%TO.P,R2,1*%
%TO.N,Net-(MES1--)*%
X230500000Y-80500000D03*
%TO.P,R2,2*%
%TO.N,Net-(Q1-B)*%
X222880000Y-80500000D03*
%TD*%
D10*
%TO.P,MES2,1,-*%
%TO.N,Net-(MES2--)*%
X178000000Y-65000000D03*
%TO.P,MES2,2,+*%
%TO.N,Net-(MES2-+)*%
X178000000Y-94970000D03*
%TD*%
D17*
%TO.N,Net-(BT1--)*%
X161000000Y-57500000D02*
X161500000Y-57000000D01*
X185695000Y-58195000D02*
X185695000Y-71512500D01*
X161000000Y-65030000D02*
X161000000Y-57500000D01*
X161500000Y-57000000D02*
X184500000Y-57000000D01*
X184500000Y-57000000D02*
X185695000Y-58195000D01*
%TO.N,Net-(BT1-+)*%
X168540000Y-87460000D02*
X187825000Y-87460000D01*
X160000000Y-96000000D02*
X168540000Y-87460000D01*
%TO.N,Net-(BT2-+)*%
X208420000Y-97000000D02*
X208420000Y-102580000D01*
X208420000Y-102580000D02*
X197500000Y-113500000D01*
%TO.N,Net-(BT2--)*%
X223500000Y-98500000D02*
X223500000Y-109530000D01*
X223500000Y-109530000D02*
X227470000Y-113500000D01*
%TO.N,Net-(MES1-+)*%
X197500000Y-90000000D02*
X187825000Y-90000000D01*
X232000000Y-86500000D02*
X201000000Y-86500000D01*
X242970000Y-68000000D02*
X234500000Y-76470000D01*
X234500000Y-84000000D02*
X232000000Y-86500000D01*
X201000000Y-86500000D02*
X197500000Y-90000000D01*
X234500000Y-76470000D02*
X234500000Y-84000000D01*
%TO.N,Net-(MES1--)*%
X213000000Y-68000000D02*
X213500000Y-68000000D01*
X226000000Y-80500000D02*
X230500000Y-80500000D01*
X213500000Y-68000000D02*
X226000000Y-80500000D01*
%TO.N,Net-(MES2-+)*%
X210960000Y-97000000D02*
X210960000Y-94000000D01*
X178000000Y-94970000D02*
X200570000Y-94970000D01*
X243000000Y-80530000D02*
X233490000Y-90040000D01*
X200570000Y-94970000D02*
X205500000Y-90040000D01*
X233490000Y-90040000D02*
X207000000Y-90040000D01*
X205500000Y-90040000D02*
X207000000Y-90040000D01*
X210960000Y-94000000D02*
X207000000Y-90040000D01*
%TO.N,Net-(MES2--)*%
X178000000Y-74500000D02*
X180500000Y-77000000D01*
X178000000Y-65000000D02*
X178000000Y-74500000D01*
X193960000Y-77000000D02*
X198960000Y-72000000D01*
X180500000Y-77000000D02*
X193960000Y-77000000D01*
%TO.N,Net-(Q1-B)*%
X200230000Y-70730000D02*
X200960000Y-70000000D01*
X215000000Y-80500000D02*
X222880000Y-80500000D01*
X204500000Y-70000000D02*
X215000000Y-80500000D01*
X200960000Y-70000000D02*
X204500000Y-70000000D01*
%TD*%
%TA.AperFunction,Conductor*%
%TO.N,GND*%
G36*
X253442539Y-54020185D02*
G01*
X253488294Y-54072989D01*
X253499500Y-54124500D01*
X253499500Y-124875500D01*
X253479815Y-124942539D01*
X253427011Y-124988294D01*
X253375500Y-124999500D01*
X149124500Y-124999500D01*
X149057461Y-124979815D01*
X149011706Y-124927011D01*
X149000500Y-124875500D01*
X149000500Y-94761091D01*
X154919500Y-94761091D01*
X154919500Y-95238908D01*
X154956988Y-95715228D01*
X154956990Y-95715247D01*
X155027056Y-96157627D01*
X155031734Y-96187162D01*
X155143276Y-96651767D01*
X155158786Y-96699501D01*
X155290924Y-97106182D01*
X155375473Y-97310301D01*
X155473775Y-97547624D01*
X155690695Y-97973354D01*
X155690702Y-97973367D01*
X155690705Y-97973372D01*
X155940342Y-98380741D01*
X155940347Y-98380748D01*
X155940349Y-98380751D01*
X155977539Y-98431939D01*
X156221190Y-98767297D01*
X156221200Y-98767311D01*
X156531501Y-99130625D01*
X156531507Y-99130632D01*
X156869368Y-99468493D01*
X156869374Y-99468498D01*
X157232688Y-99778799D01*
X157232695Y-99778804D01*
X157619249Y-100059651D01*
X157619253Y-100059653D01*
X157619258Y-100059657D01*
X158026627Y-100309294D01*
X158026632Y-100309297D01*
X158026637Y-100309299D01*
X158026646Y-100309305D01*
X158452376Y-100526225D01*
X158893812Y-100709073D01*
X158893817Y-100709075D01*
X159009359Y-100746616D01*
X159348233Y-100856724D01*
X159812838Y-100968266D01*
X160284762Y-101043011D01*
X160761097Y-101080500D01*
X160761103Y-101080500D01*
X161238897Y-101080500D01*
X161238903Y-101080500D01*
X161715238Y-101043011D01*
X162187162Y-100968266D01*
X162651767Y-100856724D01*
X163106188Y-100709073D01*
X163547624Y-100526225D01*
X163973354Y-100309305D01*
X164380751Y-100059651D01*
X164767305Y-99778804D01*
X165130632Y-99468493D01*
X165468493Y-99130632D01*
X165778804Y-98767305D01*
X166059651Y-98380751D01*
X166309305Y-97973354D01*
X166526225Y-97547624D01*
X166709073Y-97106188D01*
X166856724Y-96651767D01*
X166968266Y-96187162D01*
X167043011Y-95715238D01*
X167080500Y-95238903D01*
X167080500Y-94761097D01*
X167043011Y-94284762D01*
X166968266Y-93812838D01*
X166856724Y-93348233D01*
X166746616Y-93009359D01*
X166709075Y-92893817D01*
X166614113Y-92664558D01*
X166526225Y-92452376D01*
X166309305Y-92026646D01*
X166309299Y-92026637D01*
X166309297Y-92026632D01*
X166309290Y-92026620D01*
X166279099Y-91977354D01*
X166260853Y-91909909D01*
X166281968Y-91843306D01*
X166297139Y-91824887D01*
X169125209Y-88996819D01*
X169186532Y-88963334D01*
X169212890Y-88960500D01*
X176035525Y-88960500D01*
X176102564Y-88980185D01*
X176148319Y-89032989D01*
X176158263Y-89102147D01*
X176129238Y-89165703D01*
X176073843Y-89202431D01*
X175893817Y-89260924D01*
X175452378Y-89443774D01*
X175026632Y-89660702D01*
X175026627Y-89660705D01*
X174619258Y-89910342D01*
X174619247Y-89910350D01*
X174232702Y-90191190D01*
X174232688Y-90191200D01*
X173869374Y-90501501D01*
X173869360Y-90501514D01*
X173531514Y-90839360D01*
X173531501Y-90839374D01*
X173221200Y-91202688D01*
X173221190Y-91202702D01*
X172940350Y-91589247D01*
X172940342Y-91589258D01*
X172690705Y-91996627D01*
X172690702Y-91996632D01*
X172473774Y-92422378D01*
X172290924Y-92863817D01*
X172143280Y-93318221D01*
X172143273Y-93318244D01*
X172031733Y-93782843D01*
X171956990Y-94254752D01*
X171956988Y-94254771D01*
X171919500Y-94731091D01*
X171919500Y-95208908D01*
X171956988Y-95685228D01*
X171956990Y-95685247D01*
X171991824Y-95905180D01*
X172031734Y-96157162D01*
X172143276Y-96621767D01*
X172178543Y-96730306D01*
X172290924Y-97076182D01*
X172369401Y-97265643D01*
X172473775Y-97517624D01*
X172683360Y-97928958D01*
X172690702Y-97943367D01*
X172690705Y-97943372D01*
X172940342Y-98350741D01*
X172940347Y-98350748D01*
X172940349Y-98350751D01*
X173010524Y-98447339D01*
X173221190Y-98737297D01*
X173221200Y-98737311D01*
X173513880Y-99079993D01*
X173531507Y-99100632D01*
X173869368Y-99438493D01*
X173869374Y-99438498D01*
X174232688Y-99748799D01*
X174232695Y-99748804D01*
X174619249Y-100029651D01*
X174619253Y-100029653D01*
X174619258Y-100029657D01*
X175026627Y-100279294D01*
X175026632Y-100279297D01*
X175026637Y-100279299D01*
X175026646Y-100279305D01*
X175452376Y-100496225D01*
X175893812Y-100679073D01*
X175893817Y-100679075D01*
X175986142Y-100709073D01*
X176348233Y-100826724D01*
X176812838Y-100938266D01*
X177284762Y-101013011D01*
X177761097Y-101050500D01*
X177761103Y-101050500D01*
X178238897Y-101050500D01*
X178238903Y-101050500D01*
X178715238Y-101013011D01*
X179187162Y-100938266D01*
X179651767Y-100826724D01*
X180106188Y-100679073D01*
X180547624Y-100496225D01*
X180973354Y-100279305D01*
X181380751Y-100029651D01*
X181767305Y-99748804D01*
X182130632Y-99438493D01*
X182468493Y-99100632D01*
X182753188Y-98767297D01*
X182778799Y-98737311D01*
X182778799Y-98737310D01*
X182778804Y-98737305D01*
X183059651Y-98350751D01*
X183309305Y-97943354D01*
X183526225Y-97517624D01*
X183709073Y-97076188D01*
X183856724Y-96621767D01*
X183870220Y-96565550D01*
X183905009Y-96504961D01*
X183967036Y-96472797D01*
X183990793Y-96470500D01*
X200688097Y-96470500D01*
X200921368Y-96433553D01*
X201145992Y-96360568D01*
X201356434Y-96253343D01*
X201547510Y-96114517D01*
X206085208Y-91576819D01*
X206112135Y-91562115D01*
X206137954Y-91545523D01*
X206144154Y-91544631D01*
X206146531Y-91543334D01*
X206172889Y-91540500D01*
X206327111Y-91540500D01*
X206394150Y-91560185D01*
X206414792Y-91576819D01*
X209423181Y-94585208D01*
X209456666Y-94646531D01*
X209459500Y-94672889D01*
X209459500Y-95190873D01*
X209439815Y-95257912D01*
X209387011Y-95303667D01*
X209317853Y-95313611D01*
X209273502Y-95298261D01*
X209262373Y-95291836D01*
X209262371Y-95291835D01*
X209262361Y-95291830D01*
X209032207Y-95196498D01*
X208791561Y-95132017D01*
X208544575Y-95099501D01*
X208544570Y-95099500D01*
X208544565Y-95099500D01*
X208295435Y-95099500D01*
X208295429Y-95099500D01*
X208295424Y-95099501D01*
X208048438Y-95132017D01*
X207807792Y-95196498D01*
X207577638Y-95291830D01*
X207577623Y-95291837D01*
X207361873Y-95416400D01*
X207164225Y-95568060D01*
X207164218Y-95568066D01*
X206988066Y-95744218D01*
X206988060Y-95744225D01*
X206836400Y-95941873D01*
X206711837Y-96157623D01*
X206711830Y-96157638D01*
X206616498Y-96387792D01*
X206552017Y-96628438D01*
X206519501Y-96875424D01*
X206519500Y-96875441D01*
X206519500Y-97124558D01*
X206519501Y-97124575D01*
X206550190Y-97357684D01*
X206552018Y-97371565D01*
X206596456Y-97537410D01*
X206616498Y-97612207D01*
X206711830Y-97842361D01*
X206711837Y-97842376D01*
X206836397Y-98058122D01*
X206836401Y-98058127D01*
X206893876Y-98133031D01*
X206919070Y-98198199D01*
X206919500Y-98208516D01*
X206919500Y-101907110D01*
X206899815Y-101974149D01*
X206883181Y-101994791D01*
X200675117Y-108202854D01*
X200613794Y-108236339D01*
X200544102Y-108231355D01*
X200522648Y-108220901D01*
X200473374Y-108190707D01*
X200473365Y-108190702D01*
X200473354Y-108190695D01*
X200047624Y-107973775D01*
X199906198Y-107915194D01*
X199606182Y-107790924D01*
X199257796Y-107677727D01*
X199151767Y-107643276D01*
X198687162Y-107531734D01*
X198687156Y-107531733D01*
X198215247Y-107456990D01*
X198215238Y-107456989D01*
X198215236Y-107456988D01*
X198215228Y-107456988D01*
X197738908Y-107419500D01*
X197738903Y-107419500D01*
X197261097Y-107419500D01*
X197261091Y-107419500D01*
X196784771Y-107456988D01*
X196784752Y-107456990D01*
X196312843Y-107531733D01*
X196312840Y-107531733D01*
X196312838Y-107531734D01*
X196176008Y-107564584D01*
X195848244Y-107643273D01*
X195848238Y-107643274D01*
X195848233Y-107643276D01*
X195848221Y-107643280D01*
X195393817Y-107790924D01*
X194952378Y-107973774D01*
X194526632Y-108190702D01*
X194526627Y-108190705D01*
X194119258Y-108440342D01*
X194119247Y-108440350D01*
X193732702Y-108721190D01*
X193732688Y-108721200D01*
X193369374Y-109031501D01*
X193369360Y-109031514D01*
X193031514Y-109369360D01*
X193031501Y-109369374D01*
X192721200Y-109732688D01*
X192721190Y-109732702D01*
X192440350Y-110119247D01*
X192440342Y-110119258D01*
X192190705Y-110526627D01*
X192190702Y-110526632D01*
X191973774Y-110952378D01*
X191790924Y-111393817D01*
X191643280Y-111848221D01*
X191643273Y-111848244D01*
X191531733Y-112312843D01*
X191456990Y-112784752D01*
X191456988Y-112784771D01*
X191419500Y-113261091D01*
X191419500Y-113738908D01*
X191456988Y-114215228D01*
X191456990Y-114215247D01*
X191531733Y-114687156D01*
X191641216Y-115143189D01*
X191643276Y-115151767D01*
X191643280Y-115151778D01*
X191790924Y-115606182D01*
X191846001Y-115739149D01*
X191973775Y-116047624D01*
X192190695Y-116473354D01*
X192190702Y-116473367D01*
X192190705Y-116473372D01*
X192440342Y-116880741D01*
X192440350Y-116880752D01*
X192721190Y-117267297D01*
X192721200Y-117267311D01*
X193031501Y-117630625D01*
X193031507Y-117630632D01*
X193369368Y-117968493D01*
X193369374Y-117968498D01*
X193732688Y-118278799D01*
X193732695Y-118278804D01*
X194119249Y-118559651D01*
X194119253Y-118559653D01*
X194119258Y-118559657D01*
X194526627Y-118809294D01*
X194526632Y-118809297D01*
X194526637Y-118809299D01*
X194526646Y-118809305D01*
X194952376Y-119026225D01*
X195393812Y-119209073D01*
X195393817Y-119209075D01*
X195509359Y-119246616D01*
X195848233Y-119356724D01*
X196312838Y-119468266D01*
X196784762Y-119543011D01*
X197261097Y-119580500D01*
X197261103Y-119580500D01*
X197738897Y-119580500D01*
X197738903Y-119580500D01*
X198215238Y-119543011D01*
X198687162Y-119468266D01*
X199151767Y-119356724D01*
X199606188Y-119209073D01*
X200047624Y-119026225D01*
X200473354Y-118809305D01*
X200880751Y-118559651D01*
X201267305Y-118278804D01*
X201630632Y-117968493D01*
X201968493Y-117630632D01*
X202278804Y-117267305D01*
X202559651Y-116880751D01*
X202809305Y-116473354D01*
X203026225Y-116047624D01*
X203209073Y-115606188D01*
X203356724Y-115151767D01*
X203468266Y-114687162D01*
X203543011Y-114215238D01*
X203580500Y-113738903D01*
X203580500Y-113261097D01*
X203580500Y-113261091D01*
X221389500Y-113261091D01*
X221389500Y-113738908D01*
X221426988Y-114215228D01*
X221426990Y-114215247D01*
X221501733Y-114687156D01*
X221611216Y-115143189D01*
X221613276Y-115151767D01*
X221613280Y-115151778D01*
X221760924Y-115606182D01*
X221816001Y-115739149D01*
X221943775Y-116047624D01*
X222160695Y-116473354D01*
X222160702Y-116473367D01*
X222160705Y-116473372D01*
X222410342Y-116880741D01*
X222410350Y-116880752D01*
X222691190Y-117267297D01*
X222691200Y-117267311D01*
X223001501Y-117630625D01*
X223001507Y-117630632D01*
X223339368Y-117968493D01*
X223339374Y-117968498D01*
X223702688Y-118278799D01*
X223702695Y-118278804D01*
X224089249Y-118559651D01*
X224089253Y-118559653D01*
X224089258Y-118559657D01*
X224496627Y-118809294D01*
X224496632Y-118809297D01*
X224496637Y-118809299D01*
X224496646Y-118809305D01*
X224922376Y-119026225D01*
X225363812Y-119209073D01*
X225363817Y-119209075D01*
X225479359Y-119246616D01*
X225818233Y-119356724D01*
X226282838Y-119468266D01*
X226754762Y-119543011D01*
X227231097Y-119580500D01*
X227231103Y-119580500D01*
X227708897Y-119580500D01*
X227708903Y-119580500D01*
X228185238Y-119543011D01*
X228657162Y-119468266D01*
X229121767Y-119356724D01*
X229576188Y-119209073D01*
X230017624Y-119026225D01*
X230443354Y-118809305D01*
X230850751Y-118559651D01*
X231237305Y-118278804D01*
X231600632Y-117968493D01*
X231938493Y-117630632D01*
X232248804Y-117267305D01*
X232529651Y-116880751D01*
X232779305Y-116473354D01*
X232996225Y-116047624D01*
X233179073Y-115606188D01*
X233326724Y-115151767D01*
X233438266Y-114687162D01*
X233513011Y-114215238D01*
X233550500Y-113738903D01*
X233550500Y-113261097D01*
X233513011Y-112784762D01*
X233438266Y-112312838D01*
X233326724Y-111848233D01*
X233179073Y-111393812D01*
X232996225Y-110952376D01*
X232779305Y-110526646D01*
X232779299Y-110526637D01*
X232779297Y-110526632D01*
X232779294Y-110526627D01*
X232666838Y-110343116D01*
X232628623Y-110280755D01*
X237420000Y-110280755D01*
X237420000Y-110719244D01*
X237454402Y-111156355D01*
X237454404Y-111156374D01*
X237522995Y-111589438D01*
X237625353Y-112015794D01*
X237625360Y-112015817D01*
X237760850Y-112432817D01*
X237928646Y-112837910D01*
X237928652Y-112837923D01*
X238127723Y-113228623D01*
X238127726Y-113228629D01*
X238356810Y-113602458D01*
X238356824Y-113602480D01*
X238614554Y-113957213D01*
X238614566Y-113957228D01*
X238879279Y-114267167D01*
X240672818Y-112473627D01*
X240722208Y-112535560D01*
X240964440Y-112777792D01*
X241026371Y-112827180D01*
X239232831Y-114620719D01*
X239232831Y-114620720D01*
X239542771Y-114885433D01*
X239542786Y-114885445D01*
X239897519Y-115143175D01*
X239897541Y-115143189D01*
X240271370Y-115372273D01*
X240271376Y-115372276D01*
X240662076Y-115571347D01*
X240662089Y-115571353D01*
X241067182Y-115739149D01*
X241484182Y-115874639D01*
X241484205Y-115874646D01*
X241910561Y-115977004D01*
X242343625Y-116045595D01*
X242343644Y-116045597D01*
X242780755Y-116079999D01*
X242780769Y-116080000D01*
X243219231Y-116080000D01*
X243219244Y-116079999D01*
X243656355Y-116045597D01*
X243656374Y-116045595D01*
X244089438Y-115977004D01*
X244515794Y-115874646D01*
X244515817Y-115874639D01*
X244932817Y-115739149D01*
X245337910Y-115571353D01*
X245337923Y-115571347D01*
X245728623Y-115372276D01*
X245728629Y-115372273D01*
X246102458Y-115143189D01*
X246102480Y-115143175D01*
X246457213Y-114885445D01*
X246457215Y-114885443D01*
X246767167Y-114620719D01*
X244973628Y-112827180D01*
X245035560Y-112777792D01*
X245277792Y-112535560D01*
X245327180Y-112473628D01*
X247120719Y-114267167D01*
X247385443Y-113957215D01*
X247385445Y-113957213D01*
X247643175Y-113602480D01*
X247643189Y-113602458D01*
X247872273Y-113228629D01*
X247872276Y-113228623D01*
X248071347Y-112837923D01*
X248071353Y-112837910D01*
X248239149Y-112432817D01*
X248374639Y-112015817D01*
X248374646Y-112015794D01*
X248477004Y-111589438D01*
X248545595Y-111156374D01*
X248545597Y-111156355D01*
X248579999Y-110719244D01*
X248580000Y-110719231D01*
X248580000Y-110280768D01*
X248579999Y-110280755D01*
X248545597Y-109843644D01*
X248545595Y-109843625D01*
X248477004Y-109410561D01*
X248374646Y-108984205D01*
X248374639Y-108984182D01*
X248239149Y-108567182D01*
X248071353Y-108162089D01*
X248071347Y-108162076D01*
X247872276Y-107771376D01*
X247872273Y-107771370D01*
X247643189Y-107397541D01*
X247643175Y-107397519D01*
X247385445Y-107042786D01*
X247385433Y-107042771D01*
X247120719Y-106732831D01*
X245327179Y-108526370D01*
X245277792Y-108464440D01*
X245035560Y-108222208D01*
X244973627Y-108172818D01*
X246767167Y-106379279D01*
X246767167Y-106379278D01*
X246457228Y-106114566D01*
X246457213Y-106114554D01*
X246102480Y-105856824D01*
X246102458Y-105856810D01*
X245728629Y-105627726D01*
X245728623Y-105627723D01*
X245337923Y-105428652D01*
X245337910Y-105428646D01*
X244932817Y-105260850D01*
X244515817Y-105125360D01*
X244515794Y-105125353D01*
X244089438Y-105022995D01*
X243656374Y-104954404D01*
X243656355Y-104954402D01*
X243219244Y-104920000D01*
X242780755Y-104920000D01*
X242343644Y-104954402D01*
X242343625Y-104954404D01*
X241910561Y-105022995D01*
X241484205Y-105125353D01*
X241484182Y-105125360D01*
X241067182Y-105260850D01*
X240662089Y-105428646D01*
X240662076Y-105428652D01*
X240271376Y-105627723D01*
X240271370Y-105627726D01*
X239897541Y-105856810D01*
X239897519Y-105856824D01*
X239542786Y-106114554D01*
X239232831Y-106379279D01*
X241026371Y-108172819D01*
X240964440Y-108222208D01*
X240722208Y-108464440D01*
X240672819Y-108526371D01*
X238879279Y-106732831D01*
X238614554Y-107042786D01*
X238356824Y-107397519D01*
X238356810Y-107397541D01*
X238127726Y-107771370D01*
X238127723Y-107771376D01*
X237928652Y-108162076D01*
X237928646Y-108162089D01*
X237760850Y-108567182D01*
X237625360Y-108984182D01*
X237625353Y-108984205D01*
X237522995Y-109410561D01*
X237454404Y-109843625D01*
X237454402Y-109843644D01*
X237420000Y-110280755D01*
X232628623Y-110280755D01*
X232529657Y-110119258D01*
X232529653Y-110119253D01*
X232529651Y-110119249D01*
X232248804Y-109732695D01*
X232248799Y-109732688D01*
X231938498Y-109369374D01*
X231938493Y-109369368D01*
X231600632Y-109031507D01*
X231545222Y-108984182D01*
X231237311Y-108721200D01*
X231237297Y-108721190D01*
X231025322Y-108567182D01*
X230850751Y-108440349D01*
X230850748Y-108440347D01*
X230850741Y-108440342D01*
X230443372Y-108190705D01*
X230443367Y-108190702D01*
X230443357Y-108190697D01*
X230443354Y-108190695D01*
X230017624Y-107973775D01*
X229876198Y-107915194D01*
X229576182Y-107790924D01*
X229227796Y-107677727D01*
X229121767Y-107643276D01*
X228657162Y-107531734D01*
X228657156Y-107531733D01*
X228185247Y-107456990D01*
X228185238Y-107456989D01*
X228185236Y-107456988D01*
X228185228Y-107456988D01*
X227708908Y-107419500D01*
X227708903Y-107419500D01*
X227231097Y-107419500D01*
X227231091Y-107419500D01*
X226754771Y-107456988D01*
X226754752Y-107456990D01*
X226282843Y-107531733D01*
X226282840Y-107531733D01*
X226282838Y-107531734D01*
X226146008Y-107564584D01*
X225818244Y-107643273D01*
X225818238Y-107643274D01*
X225818233Y-107643276D01*
X225818221Y-107643280D01*
X225363812Y-107790926D01*
X225171952Y-107870397D01*
X225102483Y-107877866D01*
X225040004Y-107846591D01*
X225004352Y-107786502D01*
X225000500Y-107755836D01*
X225000500Y-99535281D01*
X225017112Y-99473282D01*
X225118284Y-99298049D01*
X225208606Y-99079993D01*
X225269693Y-98852014D01*
X225300500Y-98618011D01*
X225300500Y-98381989D01*
X225269693Y-98147986D01*
X225208606Y-97920007D01*
X225200324Y-97900013D01*
X229820000Y-97900013D01*
X229820000Y-98250000D01*
X230804314Y-98250000D01*
X230799920Y-98254394D01*
X230747259Y-98345606D01*
X230720000Y-98447339D01*
X230720000Y-98552661D01*
X230747259Y-98654394D01*
X230799920Y-98745606D01*
X230804314Y-98750000D01*
X229820001Y-98750000D01*
X229820001Y-99099986D01*
X229830494Y-99202697D01*
X229885641Y-99369119D01*
X229885643Y-99369124D01*
X229977684Y-99518345D01*
X230101654Y-99642315D01*
X230250875Y-99734356D01*
X230250880Y-99734358D01*
X230417302Y-99789505D01*
X230417309Y-99789506D01*
X230520019Y-99799999D01*
X230869999Y-99799999D01*
X230870000Y-99799998D01*
X230870000Y-98815686D01*
X230874394Y-98820080D01*
X230965606Y-98872741D01*
X231067339Y-98900000D01*
X231172661Y-98900000D01*
X231274394Y-98872741D01*
X231365606Y-98820080D01*
X231370000Y-98815686D01*
X231370000Y-99799999D01*
X231719972Y-99799999D01*
X231719986Y-99799998D01*
X231822697Y-99789505D01*
X231989119Y-99734358D01*
X231989124Y-99734356D01*
X232138345Y-99642315D01*
X232262315Y-99518345D01*
X232354356Y-99369124D01*
X232354358Y-99369119D01*
X232409505Y-99202697D01*
X232409506Y-99202690D01*
X232419999Y-99099986D01*
X232420000Y-99099973D01*
X232420000Y-98750000D01*
X231435686Y-98750000D01*
X231440080Y-98745606D01*
X231492741Y-98654394D01*
X231520000Y-98552661D01*
X231520000Y-98447339D01*
X231492741Y-98345606D01*
X231440080Y-98254394D01*
X231435686Y-98250000D01*
X232419999Y-98250000D01*
X232419999Y-97900028D01*
X232419998Y-97900013D01*
X232409505Y-97797302D01*
X232354358Y-97630880D01*
X232354356Y-97630875D01*
X232262315Y-97481654D01*
X232138345Y-97357684D01*
X231989124Y-97265643D01*
X231989119Y-97265641D01*
X231822697Y-97210494D01*
X231822690Y-97210493D01*
X231719986Y-97200000D01*
X231370000Y-97200000D01*
X231370000Y-98184314D01*
X231365606Y-98179920D01*
X231274394Y-98127259D01*
X231172661Y-98100000D01*
X231067339Y-98100000D01*
X230965606Y-98127259D01*
X230874394Y-98179920D01*
X230870000Y-98184314D01*
X230870000Y-97200000D01*
X230520028Y-97200000D01*
X230520012Y-97200001D01*
X230417302Y-97210494D01*
X230250880Y-97265641D01*
X230250875Y-97265643D01*
X230101654Y-97357684D01*
X229977684Y-97481654D01*
X229885643Y-97630875D01*
X229885641Y-97630880D01*
X229830494Y-97797302D01*
X229830493Y-97797309D01*
X229820000Y-97900013D01*
X225200324Y-97900013D01*
X225118284Y-97701951D01*
X225118282Y-97701948D01*
X225118280Y-97701943D01*
X225029183Y-97547624D01*
X225000273Y-97497550D01*
X224925496Y-97400099D01*
X224856593Y-97310302D01*
X224856587Y-97310295D01*
X224689704Y-97143412D01*
X224689697Y-97143406D01*
X224502454Y-96999730D01*
X224502453Y-96999729D01*
X224502450Y-96999727D01*
X224388909Y-96934174D01*
X224298056Y-96881719D01*
X224298045Y-96881714D01*
X224079993Y-96791394D01*
X223852010Y-96730306D01*
X223618020Y-96699501D01*
X223618017Y-96699500D01*
X223618011Y-96699500D01*
X223381989Y-96699500D01*
X223381983Y-96699500D01*
X223381979Y-96699501D01*
X223147989Y-96730306D01*
X222920006Y-96791394D01*
X222701954Y-96881714D01*
X222701943Y-96881719D01*
X222497545Y-96999730D01*
X222310302Y-97143406D01*
X222310295Y-97143412D01*
X222143412Y-97310295D01*
X222143406Y-97310302D01*
X221999730Y-97497545D01*
X221999727Y-97497549D01*
X221999727Y-97497550D01*
X221992014Y-97510909D01*
X221881719Y-97701943D01*
X221881714Y-97701954D01*
X221791394Y-97920006D01*
X221730306Y-98147989D01*
X221699501Y-98381979D01*
X221699500Y-98381995D01*
X221699500Y-98618004D01*
X221699501Y-98618020D01*
X221730306Y-98852010D01*
X221791394Y-99079993D01*
X221812366Y-99130625D01*
X221881716Y-99298049D01*
X221982887Y-99473282D01*
X221999500Y-99535281D01*
X221999500Y-109648097D01*
X222036446Y-109881368D01*
X222109433Y-110105996D01*
X222218206Y-110319474D01*
X222231102Y-110388144D01*
X222213449Y-110440558D01*
X222160700Y-110526637D01*
X222160697Y-110526641D01*
X222160695Y-110526646D01*
X222062568Y-110719231D01*
X221943774Y-110952378D01*
X221760924Y-111393817D01*
X221613280Y-111848221D01*
X221613273Y-111848244D01*
X221501733Y-112312843D01*
X221426990Y-112784752D01*
X221426988Y-112784771D01*
X221389500Y-113261091D01*
X203580500Y-113261091D01*
X203543011Y-112784762D01*
X203468266Y-112312838D01*
X203356724Y-111848233D01*
X203209073Y-111393812D01*
X203026225Y-110952376D01*
X202809305Y-110526646D01*
X202809299Y-110526637D01*
X202809297Y-110526632D01*
X202809294Y-110526627D01*
X202779098Y-110477352D01*
X202760853Y-110409907D01*
X202781969Y-110343304D01*
X202797139Y-110324886D01*
X209564517Y-103557510D01*
X209703343Y-103366434D01*
X209810568Y-103155992D01*
X209883553Y-102931369D01*
X209899973Y-102827690D01*
X209920500Y-102698097D01*
X209920500Y-98809126D01*
X209940185Y-98742087D01*
X209992989Y-98696332D01*
X210062147Y-98686388D01*
X210106501Y-98701740D01*
X210117627Y-98708164D01*
X210117634Y-98708167D01*
X210117638Y-98708169D01*
X210187994Y-98737311D01*
X210347793Y-98803502D01*
X210588435Y-98867982D01*
X210835435Y-98900500D01*
X210835442Y-98900500D01*
X211084558Y-98900500D01*
X211084565Y-98900500D01*
X211331565Y-98867982D01*
X211572207Y-98803502D01*
X211802373Y-98708164D01*
X212018127Y-98583599D01*
X212215776Y-98431938D01*
X212391938Y-98255776D01*
X212481147Y-98139515D01*
X212537574Y-98098313D01*
X212607320Y-98094158D01*
X212652408Y-98114684D01*
X212766236Y-98197384D01*
X212962589Y-98297432D01*
X213172164Y-98365526D01*
X213389819Y-98400000D01*
X213610181Y-98400000D01*
X213827835Y-98365526D01*
X214037410Y-98297432D01*
X214233760Y-98197386D01*
X214297513Y-98151066D01*
X214297514Y-98151066D01*
X213629409Y-97482962D01*
X213692993Y-97465925D01*
X213807007Y-97400099D01*
X213900099Y-97307007D01*
X213965925Y-97192993D01*
X213982962Y-97129410D01*
X214651066Y-97797514D01*
X214651066Y-97797513D01*
X214697386Y-97733760D01*
X214797432Y-97537410D01*
X214865526Y-97327835D01*
X214900000Y-97110181D01*
X214900000Y-96889818D01*
X214865526Y-96672164D01*
X214797432Y-96462589D01*
X214697388Y-96266243D01*
X214651066Y-96202485D01*
X214651065Y-96202485D01*
X213982962Y-96870589D01*
X213965925Y-96807007D01*
X213900099Y-96692993D01*
X213807007Y-96599901D01*
X213692993Y-96534075D01*
X213629408Y-96517037D01*
X214297513Y-95848932D01*
X214233756Y-95802611D01*
X214037410Y-95702567D01*
X213827835Y-95634473D01*
X213610181Y-95600000D01*
X213389819Y-95600000D01*
X213172164Y-95634473D01*
X212962589Y-95702567D01*
X212766236Y-95802615D01*
X212657385Y-95881700D01*
X212591579Y-95905180D01*
X212523525Y-95889354D01*
X212474830Y-95839249D01*
X212460500Y-95781382D01*
X212460500Y-93881902D01*
X212423553Y-93648631D01*
X212364428Y-93466666D01*
X212350568Y-93424008D01*
X212350566Y-93424005D01*
X212350566Y-93424003D01*
X212311666Y-93347659D01*
X212243343Y-93213567D01*
X212198763Y-93152207D01*
X212104523Y-93022496D01*
X212104519Y-93022491D01*
X210834209Y-91752181D01*
X210800724Y-91690858D01*
X210805708Y-91621166D01*
X210847580Y-91565233D01*
X210913044Y-91540816D01*
X210921890Y-91540500D01*
X233608097Y-91540500D01*
X233841368Y-91503553D01*
X233850764Y-91500500D01*
X234065992Y-91430568D01*
X234276434Y-91323343D01*
X234467510Y-91184517D01*
X239824883Y-85827142D01*
X239886204Y-85793659D01*
X239955896Y-85798643D01*
X239977352Y-85809098D01*
X240026627Y-85839294D01*
X240026632Y-85839297D01*
X240026637Y-85839299D01*
X240026646Y-85839305D01*
X240452376Y-86056225D01*
X240893812Y-86239073D01*
X240893817Y-86239075D01*
X241009359Y-86276616D01*
X241348233Y-86386724D01*
X241812838Y-86498266D01*
X242284762Y-86573011D01*
X242761097Y-86610500D01*
X242761103Y-86610500D01*
X243238897Y-86610500D01*
X243238903Y-86610500D01*
X243715238Y-86573011D01*
X244187162Y-86498266D01*
X244651767Y-86386724D01*
X245106188Y-86239073D01*
X245547624Y-86056225D01*
X245973354Y-85839305D01*
X246380751Y-85589651D01*
X246767305Y-85308804D01*
X247130632Y-84998493D01*
X247468493Y-84660632D01*
X247778804Y-84297305D01*
X248059651Y-83910751D01*
X248309305Y-83503354D01*
X248526225Y-83077624D01*
X248709073Y-82636188D01*
X248856724Y-82181767D01*
X248968266Y-81717162D01*
X249043011Y-81245238D01*
X249080500Y-80768903D01*
X249080500Y-80291097D01*
X249043011Y-79814762D01*
X248968266Y-79342838D01*
X248856724Y-78878233D01*
X248709073Y-78423812D01*
X248526225Y-77982376D01*
X248309305Y-77556646D01*
X248309299Y-77556637D01*
X248309297Y-77556632D01*
X248309294Y-77556627D01*
X248059657Y-77149258D01*
X248059653Y-77149253D01*
X248059651Y-77149249D01*
X247778804Y-76762695D01*
X247778799Y-76762688D01*
X247468498Y-76399374D01*
X247468493Y-76399368D01*
X247130632Y-76061507D01*
X247130625Y-76061501D01*
X246767311Y-75751200D01*
X246767297Y-75751190D01*
X246416973Y-75496666D01*
X246380751Y-75470349D01*
X246380748Y-75470347D01*
X246380741Y-75470342D01*
X245973372Y-75220705D01*
X245973367Y-75220702D01*
X245973357Y-75220697D01*
X245973354Y-75220695D01*
X245547624Y-75003775D01*
X245406198Y-74945194D01*
X245106182Y-74820924D01*
X244782856Y-74715869D01*
X244651767Y-74673276D01*
X244187162Y-74561734D01*
X244187156Y-74561733D01*
X243715247Y-74486990D01*
X243715238Y-74486989D01*
X243715236Y-74486988D01*
X243715228Y-74486988D01*
X243238908Y-74449500D01*
X243238903Y-74449500D01*
X242761097Y-74449500D01*
X242761091Y-74449500D01*
X242284771Y-74486988D01*
X242284752Y-74486990D01*
X241812843Y-74561733D01*
X241812840Y-74561733D01*
X241812838Y-74561734D01*
X241646445Y-74601681D01*
X241348244Y-74673273D01*
X241348238Y-74673274D01*
X241348233Y-74673276D01*
X241348221Y-74673280D01*
X240893817Y-74820924D01*
X240452378Y-75003774D01*
X240026632Y-75220702D01*
X240026627Y-75220705D01*
X239619258Y-75470342D01*
X239619247Y-75470350D01*
X239232702Y-75751190D01*
X239232688Y-75751200D01*
X238869374Y-76061501D01*
X238869360Y-76061514D01*
X238531514Y-76399360D01*
X238531501Y-76399374D01*
X238221200Y-76762688D01*
X238221190Y-76762702D01*
X237940350Y-77149247D01*
X237940342Y-77149258D01*
X237690705Y-77556627D01*
X237690702Y-77556632D01*
X237473774Y-77982378D01*
X237290924Y-78423817D01*
X237143280Y-78878221D01*
X237143273Y-78878244D01*
X237118888Y-78979815D01*
X237039546Y-79310301D01*
X237031733Y-79342843D01*
X236956990Y-79814752D01*
X236956988Y-79814771D01*
X236919500Y-80291091D01*
X236919500Y-80768908D01*
X236956988Y-81245228D01*
X236956990Y-81245247D01*
X237020229Y-81644523D01*
X237031734Y-81717162D01*
X237143276Y-82181767D01*
X237151997Y-82208606D01*
X237290924Y-82636182D01*
X237415194Y-82936198D01*
X237473775Y-83077624D01*
X237690695Y-83503354D01*
X237690703Y-83503367D01*
X237690707Y-83503374D01*
X237720901Y-83552648D01*
X237739145Y-83620094D01*
X237718028Y-83686696D01*
X237702854Y-83705117D01*
X232904792Y-88503181D01*
X232843469Y-88536666D01*
X232817111Y-88539500D01*
X205381903Y-88539500D01*
X205148631Y-88576446D01*
X204924003Y-88649433D01*
X204713566Y-88756657D01*
X204604550Y-88835862D01*
X204522490Y-88895483D01*
X204522488Y-88895485D01*
X204522487Y-88895485D01*
X199984792Y-93433181D01*
X199923469Y-93466666D01*
X199897111Y-93469500D01*
X189682654Y-93469500D01*
X189615615Y-93449815D01*
X189569860Y-93397011D01*
X189559916Y-93327853D01*
X189568093Y-93298048D01*
X189585258Y-93256606D01*
X189628502Y-93152207D01*
X189692982Y-92911565D01*
X189725500Y-92664565D01*
X189725500Y-92415435D01*
X189692982Y-92168435D01*
X189628502Y-91927793D01*
X189533164Y-91697627D01*
X189526738Y-91686498D01*
X189510267Y-91618599D01*
X189533120Y-91552572D01*
X189588042Y-91509382D01*
X189634127Y-91500500D01*
X197618097Y-91500500D01*
X197851368Y-91463553D01*
X198075992Y-91390568D01*
X198286434Y-91283343D01*
X198477510Y-91144517D01*
X201585208Y-88036819D01*
X201646531Y-88003334D01*
X201672889Y-88000500D01*
X232118097Y-88000500D01*
X232351368Y-87963553D01*
X232575992Y-87890568D01*
X232786434Y-87783343D01*
X232977510Y-87644517D01*
X235644517Y-84977510D01*
X235783343Y-84786433D01*
X235890568Y-84575992D01*
X235963553Y-84351368D01*
X235972117Y-84297297D01*
X236000500Y-84118097D01*
X236000500Y-77142888D01*
X236020185Y-77075849D01*
X236036814Y-77055212D01*
X239794883Y-73297142D01*
X239856204Y-73263659D01*
X239925896Y-73268643D01*
X239947352Y-73279098D01*
X239996627Y-73309294D01*
X239996632Y-73309297D01*
X239996637Y-73309299D01*
X239996646Y-73309305D01*
X240422376Y-73526225D01*
X240819347Y-73690655D01*
X240863817Y-73709075D01*
X240979359Y-73746616D01*
X241318233Y-73856724D01*
X241782838Y-73968266D01*
X242254762Y-74043011D01*
X242731097Y-74080500D01*
X242731103Y-74080500D01*
X243208897Y-74080500D01*
X243208903Y-74080500D01*
X243685238Y-74043011D01*
X244157162Y-73968266D01*
X244621767Y-73856724D01*
X245076188Y-73709073D01*
X245517624Y-73526225D01*
X245943354Y-73309305D01*
X246350751Y-73059651D01*
X246737305Y-72778804D01*
X247100632Y-72468493D01*
X247438493Y-72130632D01*
X247748804Y-71767305D01*
X248029651Y-71380751D01*
X248279305Y-70973354D01*
X248496225Y-70547624D01*
X248679073Y-70106188D01*
X248826724Y-69651767D01*
X248938266Y-69187162D01*
X249013011Y-68715238D01*
X249050500Y-68238903D01*
X249050500Y-67761097D01*
X249013011Y-67284762D01*
X248938266Y-66812838D01*
X248826724Y-66348233D01*
X248679073Y-65893812D01*
X248496225Y-65452376D01*
X248279305Y-65026646D01*
X248279299Y-65026637D01*
X248279297Y-65026632D01*
X248279294Y-65026627D01*
X248029657Y-64619258D01*
X248029653Y-64619253D01*
X248029651Y-64619249D01*
X247748804Y-64232695D01*
X247748799Y-64232688D01*
X247438498Y-63869374D01*
X247438493Y-63869368D01*
X247100632Y-63531507D01*
X247100625Y-63531501D01*
X246737311Y-63221200D01*
X246737297Y-63221190D01*
X246350752Y-62940350D01*
X246350741Y-62940342D01*
X245943372Y-62690705D01*
X245943367Y-62690702D01*
X245943357Y-62690697D01*
X245943354Y-62690695D01*
X245517624Y-62473775D01*
X245376198Y-62415194D01*
X245076182Y-62290924D01*
X244752856Y-62185869D01*
X244621767Y-62143276D01*
X244157162Y-62031734D01*
X244157156Y-62031733D01*
X243685247Y-61956990D01*
X243685238Y-61956989D01*
X243685236Y-61956988D01*
X243685228Y-61956988D01*
X243208908Y-61919500D01*
X243208903Y-61919500D01*
X242731097Y-61919500D01*
X242731091Y-61919500D01*
X242254771Y-61956988D01*
X242254752Y-61956990D01*
X241782843Y-62031733D01*
X241782840Y-62031733D01*
X241782838Y-62031734D01*
X241616445Y-62071681D01*
X241318244Y-62143273D01*
X241318238Y-62143274D01*
X241318233Y-62143276D01*
X241318221Y-62143280D01*
X240863817Y-62290924D01*
X240422378Y-62473774D01*
X239996632Y-62690702D01*
X239996627Y-62690705D01*
X239589258Y-62940342D01*
X239589247Y-62940350D01*
X239202702Y-63221190D01*
X239202688Y-63221200D01*
X238839374Y-63531501D01*
X238839360Y-63531514D01*
X238501514Y-63869360D01*
X238501501Y-63869374D01*
X238191200Y-64232688D01*
X238191190Y-64232702D01*
X237910350Y-64619247D01*
X237910342Y-64619258D01*
X237660705Y-65026627D01*
X237660702Y-65026632D01*
X237443774Y-65452378D01*
X237260924Y-65893817D01*
X237113280Y-66348221D01*
X237113273Y-66348244D01*
X237001733Y-66812843D01*
X236926990Y-67284752D01*
X236926988Y-67284771D01*
X236889500Y-67761091D01*
X236889500Y-68238908D01*
X236926988Y-68715228D01*
X236926990Y-68715247D01*
X236992782Y-69130639D01*
X237001734Y-69187162D01*
X237113276Y-69651767D01*
X237114252Y-69654771D01*
X237260924Y-70106182D01*
X237344414Y-70307744D01*
X237443775Y-70547624D01*
X237660695Y-70973354D01*
X237660703Y-70973367D01*
X237660707Y-70973374D01*
X237690901Y-71022648D01*
X237709145Y-71090094D01*
X237688028Y-71156696D01*
X237672854Y-71175117D01*
X233355485Y-75492487D01*
X233355484Y-75492488D01*
X233216657Y-75683565D01*
X233182201Y-75751190D01*
X233129061Y-75855483D01*
X233129060Y-75855483D01*
X233109431Y-75894008D01*
X233109431Y-75894009D01*
X233036447Y-76118627D01*
X233036447Y-76118630D01*
X232999500Y-76351902D01*
X232999500Y-83327111D01*
X232979815Y-83394150D01*
X232963181Y-83414792D01*
X231414792Y-84963181D01*
X231353469Y-84996666D01*
X231327111Y-84999500D01*
X200881903Y-84999500D01*
X200648630Y-85036447D01*
X200496993Y-85085716D01*
X200496992Y-85085717D01*
X200424007Y-85109432D01*
X200424001Y-85109434D01*
X200213565Y-85216657D01*
X200022488Y-85355484D01*
X200022487Y-85355485D01*
X196914792Y-88463181D01*
X196853469Y-88496666D01*
X196827111Y-88499500D01*
X189634127Y-88499500D01*
X189567088Y-88479815D01*
X189521333Y-88427011D01*
X189511389Y-88357853D01*
X189526739Y-88313501D01*
X189533164Y-88302373D01*
X189628502Y-88072207D01*
X189692982Y-87831565D01*
X189725500Y-87584565D01*
X189725500Y-87335435D01*
X189692982Y-87088435D01*
X189628502Y-86847793D01*
X189533164Y-86617627D01*
X189529049Y-86610500D01*
X189408599Y-86401873D01*
X189256939Y-86204225D01*
X189256933Y-86204218D01*
X189080781Y-86028066D01*
X189080774Y-86028060D01*
X188883126Y-85876400D01*
X188667376Y-85751837D01*
X188667361Y-85751830D01*
X188437207Y-85656498D01*
X188196561Y-85592017D01*
X187949575Y-85559501D01*
X187949570Y-85559500D01*
X187949565Y-85559500D01*
X187700435Y-85559500D01*
X187700429Y-85559500D01*
X187700424Y-85559501D01*
X187453438Y-85592017D01*
X187212792Y-85656498D01*
X186982638Y-85751830D01*
X186982623Y-85751837D01*
X186766877Y-85876397D01*
X186727050Y-85906958D01*
X186691968Y-85933876D01*
X186626801Y-85959070D01*
X186616484Y-85959500D01*
X168421903Y-85959500D01*
X168188631Y-85996446D01*
X167964003Y-86069433D01*
X167753563Y-86176659D01*
X167562496Y-86315476D01*
X167562491Y-86315480D01*
X164175116Y-89702854D01*
X164113793Y-89736339D01*
X164044101Y-89731355D01*
X164022645Y-89720900D01*
X163973372Y-89690705D01*
X163973367Y-89690702D01*
X163973357Y-89690697D01*
X163973354Y-89690695D01*
X163547624Y-89473775D01*
X163340042Y-89387792D01*
X163106182Y-89290924D01*
X162782856Y-89185869D01*
X162651767Y-89143276D01*
X162187162Y-89031734D01*
X162174882Y-89029789D01*
X161715247Y-88956990D01*
X161715238Y-88956989D01*
X161715236Y-88956988D01*
X161715228Y-88956988D01*
X161238908Y-88919500D01*
X161238903Y-88919500D01*
X160761097Y-88919500D01*
X160761091Y-88919500D01*
X160284771Y-88956988D01*
X160284752Y-88956990D01*
X159812843Y-89031733D01*
X159812840Y-89031733D01*
X159812838Y-89031734D01*
X159807611Y-89032989D01*
X159348244Y-89143273D01*
X159348238Y-89143274D01*
X159348233Y-89143276D01*
X159348221Y-89143280D01*
X158893817Y-89290924D01*
X158452378Y-89473774D01*
X158026632Y-89690702D01*
X158026627Y-89690705D01*
X157619258Y-89940342D01*
X157619247Y-89940350D01*
X157232702Y-90221190D01*
X157232688Y-90221200D01*
X156869374Y-90531501D01*
X156869360Y-90531514D01*
X156531514Y-90869360D01*
X156531501Y-90869374D01*
X156221200Y-91232688D01*
X156221190Y-91232702D01*
X155940350Y-91619247D01*
X155940342Y-91619258D01*
X155690705Y-92026627D01*
X155690702Y-92026632D01*
X155473774Y-92452378D01*
X155290924Y-92893817D01*
X155143280Y-93348221D01*
X155143273Y-93348244D01*
X155114162Y-93469500D01*
X155038937Y-93782838D01*
X155031733Y-93812843D01*
X154956990Y-94284752D01*
X154956988Y-94284771D01*
X154919500Y-94761091D01*
X149000500Y-94761091D01*
X149000500Y-64791091D01*
X154919500Y-64791091D01*
X154919500Y-65268908D01*
X154956988Y-65745228D01*
X154956990Y-65745247D01*
X155026982Y-66187162D01*
X155031734Y-66217162D01*
X155143276Y-66681767D01*
X155143280Y-66681778D01*
X155290924Y-67136182D01*
X155352464Y-67284752D01*
X155473775Y-67577624D01*
X155690695Y-68003354D01*
X155690702Y-68003367D01*
X155690705Y-68003372D01*
X155940342Y-68410741D01*
X155940347Y-68410748D01*
X155940349Y-68410751D01*
X156031672Y-68536447D01*
X156221190Y-68797297D01*
X156221200Y-68797311D01*
X156530606Y-69159577D01*
X156531507Y-69160632D01*
X156869368Y-69498493D01*
X156869374Y-69498498D01*
X157232688Y-69808799D01*
X157232695Y-69808804D01*
X157619249Y-70089651D01*
X157619253Y-70089653D01*
X157619258Y-70089657D01*
X158026627Y-70339294D01*
X158026632Y-70339297D01*
X158026637Y-70339299D01*
X158026646Y-70339305D01*
X158452376Y-70556225D01*
X158893812Y-70739073D01*
X158893817Y-70739075D01*
X158976949Y-70766086D01*
X159348233Y-70886724D01*
X159812838Y-70998266D01*
X160284762Y-71073011D01*
X160761097Y-71110500D01*
X160761103Y-71110500D01*
X161238897Y-71110500D01*
X161238903Y-71110500D01*
X161715238Y-71073011D01*
X162187162Y-70998266D01*
X162651767Y-70886724D01*
X163106188Y-70739073D01*
X163547624Y-70556225D01*
X163973354Y-70339305D01*
X164380751Y-70089651D01*
X164767305Y-69808804D01*
X165130632Y-69498493D01*
X165468493Y-69160632D01*
X165778804Y-68797305D01*
X166059651Y-68410751D01*
X166309305Y-68003354D01*
X166526225Y-67577624D01*
X166709073Y-67136188D01*
X166856724Y-66681767D01*
X166968266Y-66217162D01*
X167043011Y-65745238D01*
X167080500Y-65268903D01*
X167080500Y-64791097D01*
X167043011Y-64314762D01*
X166968266Y-63842838D01*
X166856724Y-63378233D01*
X166714447Y-62940350D01*
X166709075Y-62923817D01*
X166612513Y-62690695D01*
X166526225Y-62482376D01*
X166309305Y-62056646D01*
X166309299Y-62056637D01*
X166309297Y-62056632D01*
X166309294Y-62056627D01*
X166059657Y-61649258D01*
X166059653Y-61649253D01*
X166059651Y-61649249D01*
X165778804Y-61262695D01*
X165778799Y-61262688D01*
X165468498Y-60899374D01*
X165468493Y-60899368D01*
X165130632Y-60561507D01*
X165095500Y-60531501D01*
X164767311Y-60251200D01*
X164767297Y-60251190D01*
X164380752Y-59970350D01*
X164380741Y-59970342D01*
X163973372Y-59720705D01*
X163973367Y-59720702D01*
X163973357Y-59720697D01*
X163973354Y-59720695D01*
X163547624Y-59503775D01*
X163406198Y-59445194D01*
X163106182Y-59320924D01*
X162651779Y-59173280D01*
X162651781Y-59173280D01*
X162651767Y-59173276D01*
X162651756Y-59173273D01*
X162651748Y-59173271D01*
X162595550Y-59159778D01*
X162534959Y-59124986D01*
X162502796Y-59062959D01*
X162500500Y-59039205D01*
X162500500Y-58624500D01*
X162520185Y-58557461D01*
X162572989Y-58511706D01*
X162624500Y-58500500D01*
X183827111Y-58500500D01*
X183894150Y-58520185D01*
X183914792Y-58536819D01*
X184158181Y-58780208D01*
X184191666Y-58841531D01*
X184194500Y-58867889D01*
X184194500Y-63707501D01*
X184174815Y-63774540D01*
X184122011Y-63820295D01*
X184052853Y-63830239D01*
X183989297Y-63801214D01*
X183951523Y-63742436D01*
X183949926Y-63736448D01*
X183856724Y-63348233D01*
X183724192Y-62940342D01*
X183709075Y-62893817D01*
X183709073Y-62893812D01*
X183526225Y-62452376D01*
X183309305Y-62026646D01*
X183309299Y-62026637D01*
X183309297Y-62026632D01*
X183309294Y-62026627D01*
X183059657Y-61619258D01*
X183059653Y-61619253D01*
X183059651Y-61619249D01*
X182778804Y-61232695D01*
X182778799Y-61232688D01*
X182468498Y-60869374D01*
X182468493Y-60869368D01*
X182130632Y-60531507D01*
X182130625Y-60531501D01*
X181767311Y-60221200D01*
X181767297Y-60221190D01*
X181422044Y-59970350D01*
X181380751Y-59940349D01*
X181380748Y-59940347D01*
X181380741Y-59940342D01*
X180973372Y-59690705D01*
X180973367Y-59690702D01*
X180973357Y-59690697D01*
X180973354Y-59690695D01*
X180547624Y-59473775D01*
X180406198Y-59415194D01*
X180106182Y-59290924D01*
X179744097Y-59173276D01*
X179651767Y-59143276D01*
X179187162Y-59031734D01*
X179187156Y-59031733D01*
X178715247Y-58956990D01*
X178715238Y-58956989D01*
X178715236Y-58956988D01*
X178715228Y-58956988D01*
X178238908Y-58919500D01*
X178238903Y-58919500D01*
X177761097Y-58919500D01*
X177761091Y-58919500D01*
X177284771Y-58956988D01*
X177284752Y-58956990D01*
X176812843Y-59031733D01*
X176812840Y-59031733D01*
X176812838Y-59031734D01*
X176682777Y-59062959D01*
X176348244Y-59143273D01*
X176348238Y-59143274D01*
X176348233Y-59143276D01*
X176317150Y-59153375D01*
X175893817Y-59290924D01*
X175452378Y-59473774D01*
X175026632Y-59690702D01*
X175026627Y-59690705D01*
X174619258Y-59940342D01*
X174619247Y-59940350D01*
X174232702Y-60221190D01*
X174232688Y-60221200D01*
X173869374Y-60531501D01*
X173869360Y-60531514D01*
X173531514Y-60869360D01*
X173531501Y-60869374D01*
X173221200Y-61232688D01*
X173221190Y-61232702D01*
X172940350Y-61619247D01*
X172940342Y-61619258D01*
X172690705Y-62026627D01*
X172690702Y-62026632D01*
X172473774Y-62452378D01*
X172290924Y-62893817D01*
X172143280Y-63348221D01*
X172143273Y-63348244D01*
X172031733Y-63812843D01*
X171956990Y-64284752D01*
X171956988Y-64284771D01*
X171919500Y-64761091D01*
X171919500Y-65238908D01*
X171956988Y-65715228D01*
X171956990Y-65715247D01*
X171961742Y-65745247D01*
X172031734Y-66187162D01*
X172143276Y-66651767D01*
X172185869Y-66782856D01*
X172290924Y-67106182D01*
X172303353Y-67136188D01*
X172473775Y-67547624D01*
X172489061Y-67577624D01*
X172690702Y-67973367D01*
X172690705Y-67973372D01*
X172940342Y-68380741D01*
X172940350Y-68380752D01*
X173221190Y-68767297D01*
X173221200Y-68767311D01*
X173531501Y-69130625D01*
X173531507Y-69130632D01*
X173869368Y-69468493D01*
X173904484Y-69498485D01*
X174232688Y-69778799D01*
X174232695Y-69778804D01*
X174619249Y-70059651D01*
X174619253Y-70059653D01*
X174619258Y-70059657D01*
X175026627Y-70309294D01*
X175026632Y-70309297D01*
X175026637Y-70309299D01*
X175026646Y-70309305D01*
X175452376Y-70526225D01*
X175893812Y-70709073D01*
X175893817Y-70709075D01*
X175986142Y-70739073D01*
X176348233Y-70856724D01*
X176404449Y-70870220D01*
X176465039Y-70905009D01*
X176497203Y-70967036D01*
X176499500Y-70990793D01*
X176499500Y-74618097D01*
X176536446Y-74851368D01*
X176609433Y-75075996D01*
X176716657Y-75286434D01*
X176855483Y-75477510D01*
X179355483Y-77977510D01*
X179522490Y-78144517D01*
X179713567Y-78283343D01*
X179812991Y-78334002D01*
X179924003Y-78390566D01*
X179924005Y-78390566D01*
X179924008Y-78390568D01*
X180026322Y-78423812D01*
X180148631Y-78463553D01*
X180381903Y-78500500D01*
X180381908Y-78500500D01*
X194078097Y-78500500D01*
X194311368Y-78463553D01*
X194535992Y-78390568D01*
X194746434Y-78283343D01*
X194937510Y-78144517D01*
X199395209Y-73686818D01*
X199456532Y-73653333D01*
X199482890Y-73650499D01*
X199668028Y-73650499D01*
X199668036Y-73650499D01*
X199787418Y-73639886D01*
X199983049Y-73583909D01*
X200163407Y-73489698D01*
X200321109Y-73361109D01*
X200449698Y-73203407D01*
X200543909Y-73023049D01*
X200599886Y-72827418D01*
X200610500Y-72708037D01*
X200610499Y-72587306D01*
X200630183Y-72520269D01*
X200646818Y-72499627D01*
X200897178Y-72249266D01*
X200928559Y-72226466D01*
X201095051Y-72141634D01*
X201140813Y-72108385D01*
X201150556Y-72144745D01*
X201199925Y-72230255D01*
X201269745Y-72300075D01*
X201355255Y-72349444D01*
X201450630Y-72375000D01*
X201478553Y-72375000D01*
X200881466Y-72972085D01*
X200881466Y-72972086D01*
X200897267Y-72983566D01*
X200897275Y-72983571D01*
X201058552Y-73065747D01*
X201058555Y-73065748D01*
X201230706Y-73121682D01*
X201409494Y-73150000D01*
X201590506Y-73150000D01*
X201769293Y-73121682D01*
X201941444Y-73065748D01*
X201941452Y-73065745D01*
X202102730Y-72983568D01*
X202118532Y-72972085D01*
X202118533Y-72972085D01*
X201521448Y-72375000D01*
X201549370Y-72375000D01*
X201644745Y-72349444D01*
X201730255Y-72300075D01*
X201800075Y-72230255D01*
X201849444Y-72144745D01*
X201875000Y-72049370D01*
X201875000Y-72021447D01*
X202472085Y-72618532D01*
X202483568Y-72602730D01*
X202565745Y-72441452D01*
X202565748Y-72441444D01*
X202621682Y-72269293D01*
X202650000Y-72090506D01*
X202650000Y-71909493D01*
X202621682Y-71730704D01*
X202599625Y-71662817D01*
X202597630Y-71592976D01*
X202633711Y-71533144D01*
X202696412Y-71502316D01*
X202717556Y-71500500D01*
X203827111Y-71500500D01*
X203894150Y-71520185D01*
X203914792Y-71536819D01*
X214022490Y-81644517D01*
X214213566Y-81783343D01*
X214357316Y-81856587D01*
X214357326Y-81856592D01*
X214424003Y-81890566D01*
X214424005Y-81890566D01*
X214424008Y-81890568D01*
X214544412Y-81929689D01*
X214648631Y-81963553D01*
X214881903Y-82000500D01*
X214881908Y-82000500D01*
X221844717Y-82000500D01*
X221906717Y-82017113D01*
X222081943Y-82118280D01*
X222081948Y-82118282D01*
X222081951Y-82118284D01*
X222300007Y-82208606D01*
X222527986Y-82269693D01*
X222761989Y-82300500D01*
X222761996Y-82300500D01*
X222998004Y-82300500D01*
X222998011Y-82300500D01*
X223232014Y-82269693D01*
X223459993Y-82208606D01*
X223678049Y-82118284D01*
X223882450Y-82000273D01*
X224069699Y-81856592D01*
X224236592Y-81689699D01*
X224380273Y-81502450D01*
X224482541Y-81325315D01*
X224533107Y-81277101D01*
X224601714Y-81263878D01*
X224666579Y-81289846D01*
X224677608Y-81299636D01*
X225022491Y-81644519D01*
X225022496Y-81644523D01*
X225084683Y-81689704D01*
X225213567Y-81783343D01*
X225347659Y-81851666D01*
X225424003Y-81890566D01*
X225424005Y-81890566D01*
X225424008Y-81890568D01*
X225544412Y-81929689D01*
X225648631Y-81963553D01*
X225881903Y-82000500D01*
X225881908Y-82000500D01*
X225881909Y-82000500D01*
X226118092Y-82000500D01*
X229464717Y-82000500D01*
X229526717Y-82017113D01*
X229701943Y-82118280D01*
X229701948Y-82118282D01*
X229701951Y-82118284D01*
X229920007Y-82208606D01*
X230147986Y-82269693D01*
X230381989Y-82300500D01*
X230381996Y-82300500D01*
X230618004Y-82300500D01*
X230618011Y-82300500D01*
X230852014Y-82269693D01*
X231079993Y-82208606D01*
X231298049Y-82118284D01*
X231502450Y-82000273D01*
X231689699Y-81856592D01*
X231856592Y-81689699D01*
X232000273Y-81502450D01*
X232118284Y-81298049D01*
X232208606Y-81079993D01*
X232269693Y-80852014D01*
X232300500Y-80618011D01*
X232300500Y-80381989D01*
X232269693Y-80147986D01*
X232208606Y-79920007D01*
X232118284Y-79701951D01*
X232118282Y-79701948D01*
X232118280Y-79701943D01*
X232076118Y-79628918D01*
X232000273Y-79497550D01*
X231881562Y-79342843D01*
X231856593Y-79310302D01*
X231856587Y-79310295D01*
X231689704Y-79143412D01*
X231689697Y-79143406D01*
X231502454Y-78999730D01*
X231502453Y-78999729D01*
X231502450Y-78999727D01*
X231420957Y-78952677D01*
X231298056Y-78881719D01*
X231298045Y-78881714D01*
X231079993Y-78791394D01*
X230852010Y-78730306D01*
X230618020Y-78699501D01*
X230618017Y-78699500D01*
X230618011Y-78699500D01*
X230381989Y-78699500D01*
X230381983Y-78699500D01*
X230381979Y-78699501D01*
X230147989Y-78730306D01*
X229920006Y-78791394D01*
X229701954Y-78881714D01*
X229701943Y-78881719D01*
X229526717Y-78982887D01*
X229464717Y-78999500D01*
X226672890Y-78999500D01*
X226605851Y-78979815D01*
X226585209Y-78963181D01*
X218469571Y-70847543D01*
X218436086Y-70786220D01*
X218441070Y-70716528D01*
X218446762Y-70703578D01*
X218526225Y-70547624D01*
X218709073Y-70106188D01*
X218856724Y-69651767D01*
X218968266Y-69187162D01*
X219043011Y-68715238D01*
X219080500Y-68238903D01*
X219080500Y-67761097D01*
X219043011Y-67284762D01*
X218968266Y-66812838D01*
X218856724Y-66348233D01*
X218709073Y-65893812D01*
X218526225Y-65452376D01*
X218309305Y-65026646D01*
X218309299Y-65026637D01*
X218309297Y-65026632D01*
X218309294Y-65026627D01*
X218059657Y-64619258D01*
X218059653Y-64619253D01*
X218059651Y-64619249D01*
X217778804Y-64232695D01*
X217778799Y-64232688D01*
X217468498Y-63869374D01*
X217468493Y-63869368D01*
X217130632Y-63531507D01*
X217130625Y-63531501D01*
X216767311Y-63221200D01*
X216767297Y-63221190D01*
X216380752Y-62940350D01*
X216380741Y-62940342D01*
X215973372Y-62690705D01*
X215973367Y-62690702D01*
X215973357Y-62690697D01*
X215973354Y-62690695D01*
X215547624Y-62473775D01*
X215406198Y-62415194D01*
X215106182Y-62290924D01*
X214782856Y-62185869D01*
X214651767Y-62143276D01*
X214187162Y-62031734D01*
X214187156Y-62031733D01*
X213715247Y-61956990D01*
X213715238Y-61956989D01*
X213715236Y-61956988D01*
X213715228Y-61956988D01*
X213238908Y-61919500D01*
X213238903Y-61919500D01*
X212761097Y-61919500D01*
X212761091Y-61919500D01*
X212284771Y-61956988D01*
X212284752Y-61956990D01*
X211812843Y-62031733D01*
X211812840Y-62031733D01*
X211812838Y-62031734D01*
X211646445Y-62071681D01*
X211348244Y-62143273D01*
X211348238Y-62143274D01*
X211348233Y-62143276D01*
X211348221Y-62143280D01*
X210893817Y-62290924D01*
X210452378Y-62473774D01*
X210026632Y-62690702D01*
X210026627Y-62690705D01*
X209619258Y-62940342D01*
X209619247Y-62940350D01*
X209232702Y-63221190D01*
X209232688Y-63221200D01*
X208869374Y-63531501D01*
X208869360Y-63531514D01*
X208531514Y-63869360D01*
X208531501Y-63869374D01*
X208221200Y-64232688D01*
X208221190Y-64232702D01*
X207940350Y-64619247D01*
X207940342Y-64619258D01*
X207690705Y-65026627D01*
X207690702Y-65026632D01*
X207473774Y-65452378D01*
X207290924Y-65893817D01*
X207143280Y-66348221D01*
X207143273Y-66348244D01*
X207031733Y-66812843D01*
X206956990Y-67284752D01*
X206956988Y-67284771D01*
X206919500Y-67761091D01*
X206919500Y-68238908D01*
X206956988Y-68715228D01*
X206956990Y-68715247D01*
X207022782Y-69130639D01*
X207031734Y-69187162D01*
X207143276Y-69651767D01*
X207144252Y-69654771D01*
X207290924Y-70106182D01*
X207374414Y-70307744D01*
X207426306Y-70433024D01*
X207450263Y-70490860D01*
X207457732Y-70560330D01*
X207426457Y-70622809D01*
X207366368Y-70658461D01*
X207296543Y-70655967D01*
X207248021Y-70625994D01*
X205477511Y-68855484D01*
X205477508Y-68855482D01*
X205286434Y-68716657D01*
X205283629Y-68715228D01*
X205075996Y-68609433D01*
X204851368Y-68536446D01*
X204618097Y-68499500D01*
X204618092Y-68499500D01*
X201078092Y-68499500D01*
X200841908Y-68499500D01*
X200841903Y-68499500D01*
X200608631Y-68536446D01*
X200384003Y-68609433D01*
X200173566Y-68716657D01*
X199982491Y-68855482D01*
X199678395Y-69159577D01*
X199629036Y-69189825D01*
X199596431Y-69200419D01*
X199364945Y-69318368D01*
X199154774Y-69471066D01*
X199154768Y-69471071D01*
X198971071Y-69654768D01*
X198971066Y-69654774D01*
X198818368Y-69864945D01*
X198700422Y-70096423D01*
X198646032Y-70263819D01*
X198606594Y-70321494D01*
X198542235Y-70348692D01*
X198528101Y-70349500D01*
X198251971Y-70349500D01*
X198251965Y-70349500D01*
X198251964Y-70349501D01*
X198240316Y-70350536D01*
X198132584Y-70360113D01*
X197936954Y-70416089D01*
X197904536Y-70433023D01*
X197756593Y-70510302D01*
X197756591Y-70510303D01*
X197756590Y-70510304D01*
X197598890Y-70638890D01*
X197470304Y-70796590D01*
X197376089Y-70976954D01*
X197320114Y-71172583D01*
X197320113Y-71172586D01*
X197309500Y-71291966D01*
X197309500Y-71477109D01*
X197289815Y-71544148D01*
X197273181Y-71564790D01*
X193374792Y-75463181D01*
X193313469Y-75496666D01*
X193287111Y-75499500D01*
X181172889Y-75499500D01*
X181105850Y-75479815D01*
X181085208Y-75463181D01*
X179536819Y-73914792D01*
X179503334Y-73853469D01*
X179500500Y-73827111D01*
X179500500Y-70990793D01*
X179520185Y-70923754D01*
X179572989Y-70877999D01*
X179595545Y-70870221D01*
X179651767Y-70856724D01*
X180106188Y-70709073D01*
X180547624Y-70526225D01*
X180973354Y-70309305D01*
X181380751Y-70059651D01*
X181767305Y-69778804D01*
X182130632Y-69468493D01*
X182468493Y-69130632D01*
X182778804Y-68767305D01*
X183059651Y-68380751D01*
X183309305Y-67973354D01*
X183526225Y-67547624D01*
X183709073Y-67106188D01*
X183856724Y-66651767D01*
X183949927Y-66263549D01*
X183984717Y-66202959D01*
X184046743Y-66170795D01*
X184116312Y-66177271D01*
X184171336Y-66220331D01*
X184194345Y-66286303D01*
X184194500Y-66292498D01*
X184194500Y-70099863D01*
X184174815Y-70166902D01*
X184172428Y-70170479D01*
X184052997Y-70342867D01*
X184052991Y-70342877D01*
X183959903Y-70547818D01*
X183959902Y-70547821D01*
X183904905Y-70766079D01*
X183904904Y-70766086D01*
X183894500Y-70898277D01*
X183894500Y-72126708D01*
X183894501Y-72126723D01*
X183904904Y-72258913D01*
X183904905Y-72258920D01*
X183959902Y-72477178D01*
X183959903Y-72477181D01*
X184052991Y-72682122D01*
X184052997Y-72682132D01*
X184181174Y-72867145D01*
X184181178Y-72867150D01*
X184181181Y-72867154D01*
X184340346Y-73026319D01*
X184340350Y-73026322D01*
X184340354Y-73026325D01*
X184477994Y-73121682D01*
X184525374Y-73154507D01*
X184730317Y-73247596D01*
X184730321Y-73247597D01*
X184948579Y-73302594D01*
X184948581Y-73302594D01*
X184948588Y-73302596D01*
X185080783Y-73313000D01*
X186309216Y-73312999D01*
X186441412Y-73302596D01*
X186659683Y-73247596D01*
X186864626Y-73154507D01*
X187049654Y-73026319D01*
X187208819Y-72867154D01*
X187337007Y-72682126D01*
X187419902Y-72499627D01*
X187422715Y-72493434D01*
X187425377Y-72487571D01*
X187430096Y-72477183D01*
X187485096Y-72258912D01*
X187495500Y-72126717D01*
X187495499Y-71410182D01*
X192015000Y-71410182D01*
X192015000Y-71614817D01*
X192047009Y-71816917D01*
X192110244Y-72011531D01*
X192203141Y-72193850D01*
X192203147Y-72193859D01*
X192235523Y-72238421D01*
X192235524Y-72238422D01*
X192915000Y-71558946D01*
X192915000Y-71565161D01*
X192942259Y-71666894D01*
X192994920Y-71758106D01*
X193069394Y-71832580D01*
X193160606Y-71885241D01*
X193262339Y-71912500D01*
X193268553Y-71912500D01*
X192589076Y-72591974D01*
X192633650Y-72624359D01*
X192815968Y-72717255D01*
X193010582Y-72780490D01*
X193212683Y-72812500D01*
X193417317Y-72812500D01*
X193619417Y-72780490D01*
X193814031Y-72717255D01*
X193996349Y-72624359D01*
X194040921Y-72591974D01*
X193361447Y-71912500D01*
X193367661Y-71912500D01*
X193469394Y-71885241D01*
X193560606Y-71832580D01*
X193635080Y-71758106D01*
X193687741Y-71666894D01*
X193715000Y-71565161D01*
X193715000Y-71558947D01*
X194394474Y-72238421D01*
X194426859Y-72193849D01*
X194519755Y-72011531D01*
X194582990Y-71816917D01*
X194615000Y-71614817D01*
X194615000Y-71410182D01*
X194582990Y-71208082D01*
X194519755Y-71013468D01*
X194426859Y-70831150D01*
X194394474Y-70786577D01*
X194394474Y-70786576D01*
X193715000Y-71466051D01*
X193715000Y-71459839D01*
X193687741Y-71358106D01*
X193635080Y-71266894D01*
X193560606Y-71192420D01*
X193469394Y-71139759D01*
X193367661Y-71112500D01*
X193361446Y-71112500D01*
X194040922Y-70433024D01*
X194040921Y-70433023D01*
X193996359Y-70400647D01*
X193996350Y-70400641D01*
X193814031Y-70307744D01*
X193619417Y-70244509D01*
X193417317Y-70212500D01*
X193212683Y-70212500D01*
X193010582Y-70244509D01*
X192815968Y-70307744D01*
X192633644Y-70400643D01*
X192589077Y-70433023D01*
X192589077Y-70433024D01*
X193268554Y-71112500D01*
X193262339Y-71112500D01*
X193160606Y-71139759D01*
X193069394Y-71192420D01*
X192994920Y-71266894D01*
X192942259Y-71358106D01*
X192915000Y-71459839D01*
X192915000Y-71466053D01*
X192235524Y-70786577D01*
X192235523Y-70786577D01*
X192203143Y-70831144D01*
X192110244Y-71013468D01*
X192047009Y-71208082D01*
X192015000Y-71410182D01*
X187495499Y-71410182D01*
X187495499Y-70898284D01*
X187485096Y-70766088D01*
X187430096Y-70547817D01*
X187337007Y-70342874D01*
X187312669Y-70307744D01*
X187217572Y-70170479D01*
X187195575Y-70104162D01*
X187195500Y-70099863D01*
X187195500Y-58076902D01*
X187158553Y-57843631D01*
X187144395Y-57800059D01*
X187085568Y-57619008D01*
X187063650Y-57575992D01*
X186978343Y-57408566D01*
X186839517Y-57217490D01*
X185477510Y-55855483D01*
X185286434Y-55716657D01*
X185075996Y-55609433D01*
X184851368Y-55536446D01*
X184618097Y-55499500D01*
X184618092Y-55499500D01*
X161618092Y-55499500D01*
X161381908Y-55499500D01*
X161381903Y-55499500D01*
X161148631Y-55536446D01*
X160924003Y-55609433D01*
X160713563Y-55716659D01*
X160522496Y-55855476D01*
X160522491Y-55855480D01*
X159855485Y-56522487D01*
X159855484Y-56522488D01*
X159716655Y-56713567D01*
X159670359Y-56804431D01*
X159670359Y-56804432D01*
X159609433Y-56924003D01*
X159536446Y-57148631D01*
X159499500Y-57381902D01*
X159499500Y-59039205D01*
X159479815Y-59106244D01*
X159427011Y-59151999D01*
X159404450Y-59159778D01*
X159348251Y-59173271D01*
X159348237Y-59173274D01*
X159348233Y-59173276D01*
X159348226Y-59173278D01*
X159348220Y-59173280D01*
X158893817Y-59320924D01*
X158452378Y-59503774D01*
X158026632Y-59720702D01*
X158026627Y-59720705D01*
X157619258Y-59970342D01*
X157619247Y-59970350D01*
X157232702Y-60251190D01*
X157232688Y-60251200D01*
X156869374Y-60561501D01*
X156869360Y-60561514D01*
X156531514Y-60899360D01*
X156531501Y-60899374D01*
X156221200Y-61262688D01*
X156221190Y-61262702D01*
X155940350Y-61649247D01*
X155940342Y-61649258D01*
X155690705Y-62056627D01*
X155690702Y-62056632D01*
X155473774Y-62482378D01*
X155290924Y-62923817D01*
X155143280Y-63378221D01*
X155143273Y-63378244D01*
X155106478Y-63531507D01*
X155038937Y-63812838D01*
X155031733Y-63842843D01*
X154956990Y-64314752D01*
X154956988Y-64314771D01*
X154919500Y-64791091D01*
X149000500Y-64791091D01*
X149000500Y-54124500D01*
X149020185Y-54057461D01*
X149072989Y-54011706D01*
X149124500Y-54000500D01*
X253375500Y-54000500D01*
X253442539Y-54020185D01*
G37*
%TD.AperFunction*%
%TD*%
M02*
