M48
; DRILL file {KiCad 9.0.6} date 2026-02-16T22:21:37+0530
; FORMAT={-:-/ absolute / metric / decimal}
; #@! TF.CreationDate,2026-02-16T22:21:37+05:30
; #@! TF.GenerationSoftware,Kicad,Pcbnew,9.0.6
; #@! TF.FileFunction,Plated,1,2,PTH
FMAT,2
METRIC
; #@! TA.AperFunction,Plated,PTH,ComponentDrill
T1C0.750
; #@! TA.AperFunction,Plated,PTH,ComponentDrill
T2C0.800
; #@! TA.AperFunction,Plated,PTH,ComponentDrill
T3C1.000
; #@! TA.AperFunction,Plated,PTH,ComponentDrill
T4C6.100
%
G90
G05
T1
X198.96Y-72.0
X200.23Y-70.73
X201.5Y-72.0
T2
X185.695Y-71.513
X193.315Y-71.513
X222.88Y-80.5
X223.5Y-98.5
X230.5Y-80.5
X231.12Y-98.5
T3
X187.825Y-87.46
X187.825Y-90.0
X187.825Y-92.54
X208.42Y-97.0
X210.96Y-97.0
X213.5Y-97.0
T4
X161.0Y-65.03
X161.0Y-95.0
X178.0Y-65.0
X178.0Y-94.97
X197.5Y-113.5
X213.0Y-68.0
X227.47Y-113.5
X242.97Y-68.0
X243.0Y-80.53
X243.0Y-110.5
M30
